<?xml version="1.0" ?><svg height="32" id="svg17515" version="1.1" viewBox="0 0 32 32.000001" width="32" xmlns="http://www.w3.org/2000/svg" xmlns:cc="http://creativecommons.org/ns#" xmlns:dc="http://purl.org/dc/elements/1.1/" xmlns:inkscape="http://www.inkscape.org/namespaces/inkscape" xmlns:rdf="http://www.w3.org/1999/02/22-rdf-syntax-ns#" xmlns:sodipodi="http://sodipodi.sourceforge.net/DTD/sodipodi-0.dtd" xmlns:svg="http://www.w3.org/2000/svg"><defs id="defs17517"><clipPath clipPathUnits="userSpaceOnUse" id="clipPath32617-9-8-8-9"><circle cx="-64.623535" cy="50.047192" id="path32619-2-3-5-1" r="38.553814" style="fill:#4bb7c0;fill-opacity:1;stroke:none" transform="matrix(9.3443438,0,0,9.3443438,-627.91229,-5859.5225)"/></clipPath><clipPath clipPathUnits="userSpaceOnUse" id="clipPath19550"><circle cx="-64.623535" cy="50.047192" id="circle19552" r="38.553814" style="fill:#4bb7c0;fill-opacity:1;stroke:none" transform="matrix(9.3443438,0,0,9.3443438,-627.91229,-5859.5225)"/></clipPath></defs><g id="layer1" transform="translate(0,-1020.3622)"><g id="g42177" style="display:inline" transform="translate(485.11799,80.293791)"><g id="g42160"><g id="g39312"><path d="m -460.93591,950.81405 3.31798,1.2976 -2.60698,1.5571" id="path11307" style="fill:#a78e68;fill-opacity:1;fill-rule:evenodd;stroke:none;stroke-width:0.99999744;stroke-linecap:butt;stroke-linejoin:round;stroke-miterlimit:4;stroke-dasharray:none;stroke-opacity:1"/><path d="m -460.93555,-69.548828 0.71094,2.855469 0.61328,-0.367188 c -0.0239,-0.767755 -0.19525,-1.497955 -0.49023,-2.162109 z" id="path42144" style="opacity:1;fill:#9d8664;fill-opacity:1;stroke:none;stroke-width:0.99999732;stroke-linecap:round;stroke-linejoin:round;stroke-miterlimit:4;stroke-dasharray:none;stroke-dashoffset:0;stroke-opacity:1" transform="translate(0,1020.3622)"/><path d="m -466.91211,-73.982422 a 0.50064474,0.50064474 0 0 0 0.0508,1 c 0.55429,0 0.99416,0.439861 0.99414,0.994141 a 0.50005,0.50005 0 0 0 0.55664,0.503906 0.50005,0.50005 0 0 0 0.0508,-0.0098 0.50005,0.50005 0 0 0 0.39258,-0.49414 c -1e-5,-0.55428 0.4379,-0.994141 0.99219,-0.994141 a 0.50005,0.50005 0 1 0 0,-1 c -0.59542,0 -1.12613,0.270567 -1.49219,0.689453 -0.36658,-0.418886 -0.89872,-0.689453 -1.49414,-0.689453 a 0.50005,0.50005 0 0 0 -0.0508,0 z" id="path55462" style="color:#000000;font-style:normal;font-variant:normal;font-weight:normal;font-stretch:normal;font-size:medium;line-height:normal;font-family:sans-serif;text-indent:0;text-align:start;text-decoration:none;text-decoration-line:none;text-decoration-style:solid;text-decoration-color:#000000;letter-spacing:normal;word-spacing:normal;text-transform:none;direction:ltr;writing-mode:lr-tb;baseline-shift:baseline;text-anchor:start;white-space:normal;clip-rule:nonzero;display:inline;overflow:visible;visibility:visible;opacity:1;isolation:auto;mix-blend-mode:normal;color-interpolation:sRGB;color-interpolation-filters:linearRGB;solid-color:#000000;solid-opacity:1;fill:#e79983;fill-opacity:1;fill-rule:nonzero;stroke:none;stroke-width:1;stroke-linecap:round;stroke-linejoin:round;stroke-miterlimit:4;stroke-dasharray:none;stroke-dashoffset:0;stroke-opacity:1;color-rendering:auto;image-rendering:auto;shape-rendering:auto;text-rendering:auto;enable-background:accumulate" transform="translate(0,1020.3622)"/><path d="m -465.61719,-72.771484 c -0.20455,0 -0.4067,0.01144 -0.60547,0.0332 0.2138,0.181499 0.35548,0.443646 0.35547,0.75 a 0.50005,0.50005 0 0 0 0.55664,0.503906 0.50005,0.50005 0 0 0 0.0508,-0.0098 0.50005,0.50005 0 0 0 0.39258,-0.49414 c 0,-0.26789 0.10711,-0.5059 0.27539,-0.683594 -0.33286,-0.0629 -0.67424,-0.09961 -1.02539,-0.09961 z" id="path42138" style="opacity:0.1;fill:#3b3c3d;fill-opacity:1;stroke:none;stroke-width:0.99999738;stroke-linecap:round;stroke-linejoin:round;stroke-miterlimit:4;stroke-dasharray:none;stroke-dashoffset:0;stroke-opacity:1" transform="translate(0,1020.3622)"/><path d="m -470.625,963.06836 a 0.50004869,0.50004869 0 0 0 -0.49219,0.50586 l 0,1.98633 a 0.50004869,0.50004869 0 1 0 1,0 l 0,-1.98633 a 0.50004869,0.50004869 0 0 0 -0.50781,-0.50586 z" id="path11309" style="color:#000000;font-style:normal;font-variant:normal;font-weight:normal;font-stretch:normal;font-size:medium;line-height:normal;font-family:sans-serif;text-indent:0;text-align:start;text-decoration:none;text-decoration-line:none;text-decoration-style:solid;text-decoration-color:#000000;letter-spacing:normal;word-spacing:normal;text-transform:none;direction:ltr;writing-mode:lr-tb;baseline-shift:baseline;text-anchor:start;white-space:normal;clip-rule:nonzero;display:inline;overflow:visible;visibility:visible;opacity:1;isolation:auto;mix-blend-mode:normal;color-interpolation:sRGB;color-interpolation-filters:linearRGB;solid-color:#000000;solid-opacity:1;fill:#a78e68;fill-opacity:1;fill-rule:evenodd;stroke:none;stroke-width:0.99999738;stroke-linecap:round;stroke-linejoin:round;stroke-miterlimit:4;stroke-dasharray:none;stroke-dashoffset:0;stroke-opacity:1;color-rendering:auto;image-rendering:auto;shape-rendering:auto;text-rendering:auto;enable-background:accumulate"/><path d="m -470.625,-57.292969 a 0.50004869,0.50004869 0 0 0 -0.49219,0.50586 l 0,0.558593 c 0.32877,0.03263 0.66268,0.05079 1,0.05078 l 0,-0.609375 a 0.50004869,0.50004869 0 0 0 -0.50781,-0.50586 z" id="path42133" style="opacity:1;fill:#9d8664;fill-opacity:1;stroke:none;stroke-width:0.99999738;stroke-linecap:round;stroke-linejoin:round;stroke-miterlimit:4;stroke-dasharray:none;stroke-dashoffset:0;stroke-opacity:1" transform="translate(0,1020.3622)"/><path d="m -471.61719,965.06836 a 0.50004869,0.50004869 0 1 0 0,1 l 2.99219,0 a 0.50004869,0.50004869 0 1 0 0,-1 z" id="path11311" style="color:#000000;font-style:normal;font-variant:normal;font-weight:normal;font-stretch:normal;font-size:medium;line-height:normal;font-family:sans-serif;text-indent:0;text-align:start;text-decoration:none;text-decoration-line:none;text-decoration-style:solid;text-decoration-color:#000000;letter-spacing:normal;word-spacing:normal;text-transform:none;direction:ltr;writing-mode:lr-tb;baseline-shift:baseline;text-anchor:start;white-space:normal;clip-rule:nonzero;display:inline;overflow:visible;visibility:visible;opacity:1;isolation:auto;mix-blend-mode:normal;color-interpolation:sRGB;color-interpolation-filters:linearRGB;solid-color:#000000;solid-opacity:1;fill:#a78e68;fill-opacity:1;fill-rule:evenodd;stroke:none;stroke-width:0.99999738;stroke-linecap:round;stroke-linejoin:round;stroke-miterlimit:4;stroke-dasharray:none;stroke-dashoffset:0;stroke-opacity:1;color-rendering:auto;image-rendering:auto;shape-rendering:auto;text-rendering:auto;enable-background:accumulate"/><path d="m -465.61803,948.09835 c -1.52244,0 -2.90041,0.6186 -3.89628,1.6181 -1.63721,1.6432 -3.53335,3.8952 -5.91373,3.9046 -1.56378,0.01 -3.12898,0.011 -4.68995,0.017 0.0215,5.5149 4.50426,9.9712 10.0195,9.9604 5.2973,-0.017 9.66239,-4.1616 9.9531,-9.4506 0.0183,-0.1824 0.0274,-0.3655 0.0274,-0.5488 0,-3.0374 -2.46243,-5.4997 -5.49998,-5.4997 z" id="path11303" style="opacity:1;fill:#e79983;fill-opacity:1;stroke:none;stroke-width:0.99999738;stroke-linecap:round;stroke-linejoin:round;stroke-miterlimit:4;stroke-dasharray:none;stroke-dashoffset:0;stroke-opacity:1"/><path d="m -465.64729,955.67175 a 0.50004869,0.50004869 0 0 0 -0.49804,0.502 c -0.0161,1.5991 -0.87916,3.0677 -2.26758,3.8613 -1.38842,0.7936 -3.09046,0.7918 -4.47656,-0.01 a 0.5005087,0.5005087 0 1 0 -0.5,0.8672 c 1.69262,0.974 3.7772,0.9769 5.47265,0.01 1.69545,-0.9691 2.75178,-2.768 2.77149,-4.7207 a 0.50004869,0.50004869 0 0 0 -0.50196,-0.5118 z" id="path11305" style="color:#000000;font-style:normal;font-variant:normal;font-weight:normal;font-stretch:normal;font-size:medium;line-height:normal;font-family:sans-serif;text-indent:0;text-align:start;text-decoration:none;text-decoration-line:none;text-decoration-style:solid;text-decoration-color:#000000;letter-spacing:normal;word-spacing:normal;text-transform:none;direction:ltr;writing-mode:lr-tb;baseline-shift:baseline;text-anchor:start;white-space:normal;clip-rule:nonzero;display:inline;overflow:visible;visibility:visible;opacity:1;isolation:auto;mix-blend-mode:normal;color-interpolation:sRGB;color-interpolation-filters:linearRGB;solid-color:#000000;solid-opacity:1;fill:#d6907c;fill-opacity:1;fill-rule:nonzero;stroke:none;stroke-width:0.99999738;stroke-linecap:round;stroke-linejoin:round;stroke-miterlimit:4;stroke-dasharray:none;stroke-dashoffset:0;stroke-opacity:1;color-rendering:auto;image-rendering:auto;shape-rendering:auto;text-rendering:auto;enable-background:accumulate"/><path d="m -463.61804,951.84845 a 0.74999803,0.74999803 0 0 1 -0.74999,0.75 0.74999803,0.74999803 0 0 1 -0.75,-0.75 0.74999803,0.74999803 0 0 1 0.75,-0.75 0.74999803,0.74999803 0 0 1 0.74999,0.75 z" id="circle11313" style="opacity:1;fill:#ffd158;fill-opacity:1;stroke:none;stroke-width:0.99999738;stroke-linecap:round;stroke-linejoin:round;stroke-miterlimit:4;stroke-dasharray:none;stroke-dashoffset:0;stroke-opacity:1"/><path d="m -464.03991,951.84845 a 0.32812414,0.32812414 0 0 1 -0.32812,0.32812 0.32812414,0.32812414 0 0 1 -0.32813,-0.32812 0.32812414,0.32812414 0 0 1 0.32813,-0.32813 0.32812414,0.32812414 0 0 1 0.32812,0.32813 z" id="path42162" style="opacity:1;fill:#a78e68;fill-opacity:1;stroke:none;stroke-width:0.99999732;stroke-linecap:round;stroke-linejoin:round;stroke-miterlimit:4;stroke-dasharray:none;stroke-dashoffset:0;stroke-opacity:1"/></g></g></g></g></svg>