<?xml version="1.0" encoding="utf-8"?>
<!-- Generator: Adobe Illustrator 18.0.0, SVG Export Plug-In . SVG Version: 6.00 Build 0)  -->
<!DOCTYPE svg PUBLIC "-//W3C//DTD SVG 1.1//EN" "http://www.w3.org/Graphics/SVG/1.1/DTD/svg11.dtd">
<svg version="1.1" id="Calque_1" xmlns="http://www.w3.org/2000/svg" xmlns:xlink="http://www.w3.org/1999/xlink" x="0px" y="0px"
	 viewBox="0 0 54 54" enable-background="new 0 0 54 54" xml:space="preserve">
<g>
	<g>
		<circle fill="#FFFFFF" cx="27" cy="27" r="24.8"/>
		<path fill="#7992BF" d="M27,54C12.1,54,0,41.9,0,27S12.1,0,27,0s27,12.1,27,27S41.9,54,27,54z M27,4.4C14.5,4.4,4.4,14.5,4.4,27
			S14.5,49.7,27,49.7S49.7,39.5,49.7,27S39.5,4.4,27,4.4z"/>
	</g>
	<path fill="#7992BF" d="M22.8,18.4c-0.9-0.5-2,0.2-2,1.3V27v7.4c0,1,1.1,1.7,2,1.3L38,28.3c1.1-0.5,1.1-2,0-2.5L22.8,18.4z"/>
</g>
</svg>
