<?xml version="1.0" encoding="utf-8"?>
<!-- Generator: Adobe Illustrator 18.0.0, SVG Export Plug-In . SVG Version: 6.00 Build 0)  -->
<!DOCTYPE svg PUBLIC "-//W3C//DTD SVG 1.1//EN" "http://www.w3.org/Graphics/SVG/1.1/DTD/svg11.dtd">
<svg version="1.1" id="Calque_1" xmlns="http://www.w3.org/2000/svg" xmlns:xlink="http://www.w3.org/1999/xlink" x="0px" y="0px"
	 viewBox="0 0 54 54" enable-background="new 0 0 54 54" xml:space="preserve">
<path fill="#7992BF" d="M27,54C12.1,54,0,41.9,0,27S12.1,0,27,0s27,12.1,27,27S41.9,54,27,54z M27,4.4C14.5,4.4,4.4,14.5,4.4,27
	S14.5,49.7,27,49.7S49.7,39.5,49.7,27S39.5,4.4,27,4.4z"/>
<g>
	<g>
		<path fill="#7992BF" d="M38.4,36.8H16.5c-1.5,0-2.7-1.2-2.7-2.7V21.5c0-1.5,1.2-2.7,2.7-2.7h21.8c1.5,0,2.7,1.2,2.7,2.7v12.5
			C41.1,35.6,39.9,36.8,38.4,36.8z"/>
		<g>
			<path fill="#7992BF" d="M36.8,39.4L36.8,39.4c0-1-0.8-1.7-1.7-1.7H21.1c-1,0-1.7,0.8-1.7,1.7v0c0,1,0.8,1.7,1.7,1.7h13.9
				C36,41.2,36.8,40.4,36.8,39.4z"/>
			<path fill="#7992BF" d="M36.8,34L36.8,34c0-1-0.8-1.7-1.7-1.7H21.1c-1,0-1.7,0.8-1.7,1.7v0c0,1,0.8,1.7,1.7,1.7h13.9
				C36,35.7,36.8,34.9,36.8,34z"/>
			<path fill="#7992BF" d="M35.1,32.2L35.1,32.2c-1,0-1.7,0.8-1.7,1.7v5.5c0,1,0.8,1.7,1.7,1.7h0c1,0,1.7-0.8,1.7-1.7V34
				C36.9,33,36.1,32.2,35.1,32.2z"/>
			<path fill="#7992BF" d="M21.1,32.2L21.1,32.2c-1,0-1.7,0.8-1.7,1.7v5.5c0,1,0.8,1.7,1.7,1.7h0c1,0,1.7-0.8,1.7-1.7V34
				C22.9,33,22.1,32.2,21.1,32.2z"/>
		</g>
		<g>
			<path fill="#7992BF" d="M36.8,19.8L36.8,19.8c0-1-0.8-1.7-1.7-1.7H21.1c-1,0-1.7,0.8-1.7,1.7v0c0,1,0.8,1.7,1.7,1.7h13.9
				C36,21.5,36.8,20.7,36.8,19.8z"/>
			<path fill="#7992BF" d="M36.8,14.3L36.8,14.3c0-1-0.8-1.7-1.7-1.7H21.1c-1,0-1.7,0.8-1.7,1.7v0c0,1,0.8,1.7,1.7,1.7h13.9
				C36,16,36.8,15.2,36.8,14.3z"/>
			<path fill="#7992BF" d="M35.1,12.5L35.1,12.5c-1,0-1.7,0.8-1.7,1.7v5.5c0,1,0.8,1.7,1.7,1.7h0c1,0,1.7-0.8,1.7-1.7v-5.5
				C36.9,13.3,36.1,12.5,35.1,12.5z"/>
			<path fill="#7992BF" d="M21.1,12.5L21.1,12.5c-1,0-1.7,0.8-1.7,1.7v5.5c0,1,0.8,1.7,1.7,1.7h0c1,0,1.7-0.8,1.7-1.7v-5.5
				C22.9,13.3,22.1,12.5,21.1,12.5z"/>
		</g>
		<rect x="22.9" y="32.5" fill="#FFFFFF" width="10.5" height="5.2"/>
		<circle fill="#FFFFFF" cx="17.4" cy="23.1" r="1.4"/>
	</g>
</g>
</svg>
