<?xml version="1.0" encoding="utf-8"?>
<!-- Generator: Adobe Illustrator 18.0.0, SVG Export Plug-In . SVG Version: 6.00 Build 0)  -->
<!DOCTYPE svg PUBLIC "-//W3C//DTD SVG 1.1//EN" "http://www.w3.org/Graphics/SVG/1.1/DTD/svg11.dtd">
<svg version="1.1" id="Calque_1" xmlns="http://www.w3.org/2000/svg" xmlns:xlink="http://www.w3.org/1999/xlink" x="0px" y="0px"
	 viewBox="0 0 409.4 297.9" enable-background="new 0 0 409.4 297.9" xml:space="preserve">
<g>
	<rect x="0" y="0.2" fill="#FFFFFF" width="409.4" height="297"/>
	<g opacity="0.21">
		<path fill="#FFBA27" d="M252.8,73.8h35.7c2.3,0,4.1,1.9,4.1,4.1v6.7c0,2.3-1.9,4.1-4.1,4.1h-35.7c-2.3,0-4.1-1.9-4.1-4.1v-6.7
			C248.7,75.7,250.5,73.8,252.8,73.8z"/>
		<path fill="#FFBA27" d="M252.8,103.7h35.7c2.3,0,4.1,1.9,4.1,4.1v6.7c0,2.3-1.9,4.1-4.1,4.1h-35.7c-2.3,0-4.1-1.9-4.1-4.1v-6.7
			C248.7,105.6,250.5,103.7,252.8,103.7z"/>
		<path fill="#FFBA27" d="M252.8,133.7h35.7c2.3,0,4.1,1.9,4.1,4.1v6.7c0,2.3-1.9,4.1-4.1,4.1h-35.7c-2.3,0-4.1-1.9-4.1-4.1v-6.7
			C248.7,135.5,250.5,133.7,252.8,133.7z"/>
		<path fill="#FFBA27" d="M252.8,163.6h35.7c2.3,0,4.1,1.9,4.1,4.1v6.7c0,2.3-1.9,4.1-4.1,4.1h-35.7c-2.3,0-4.1-1.9-4.1-4.1v-6.7
			C248.7,165.5,250.5,163.6,252.8,163.6z"/>
		<path fill="#FFBA27" d="M252.8,193.5h35.7c2.3,0,4.1,1.9,4.1,4.1v6.7c0,2.3-1.9,4.1-4.1,4.1h-35.7c-2.3,0-4.1-1.9-4.1-4.1v-6.7
			C248.7,195.4,250.5,193.5,252.8,193.5z"/>
		<path fill="#FFBA27" d="M208.8,88.8h35.7c2.3,0,4.1,1.9,4.1,4.1v6.7c0,2.3-1.9,4.1-4.1,4.1h-35.7c-2.3,0-4.1-1.9-4.1-4.1v-6.7
			C204.7,90.6,206.6,88.8,208.8,88.8z"/>
		<path fill="#FFBA27" d="M208.8,118.7h35.7c2.3,0,4.1,1.9,4.1,4.1v6.7c0,2.3-1.9,4.1-4.1,4.1h-35.7c-2.3,0-4.1-1.9-4.1-4.1v-6.7
			C204.7,120.6,206.6,118.7,208.8,118.7z"/>
		<path fill="#FFBA27" d="M208.8,148.6h35.7c2.3,0,4.1,1.9,4.1,4.1v6.7c0,2.3-1.9,4.1-4.1,4.1h-35.7c-2.3,0-4.1-1.9-4.1-4.1v-6.7
			C204.7,150.5,206.6,148.6,208.8,148.6z"/>
		<path fill="#FFBA27" d="M208.8,178.6h35.7c2.3,0,4.1,1.9,4.1,4.1v6.7c0,2.3-1.9,4.1-4.1,4.1h-35.7c-2.3,0-4.1-1.9-4.1-4.1v-6.7
			C204.7,180.4,206.6,178.6,208.8,178.6z"/>
		<path fill="#FFBA27" d="M208.8,208.5h35.7c2.3,0,4.1,1.9,4.1,4.1v6.7c0,2.3-1.9,4.1-4.1,4.1h-35.7c-2.3,0-4.1-1.9-4.1-4.1v-6.7
			C204.7,210.4,206.6,208.5,208.8,208.5z"/>
		<path fill="#FFBA27" d="M296.8,88.8h35.7c2.3,0,4.1,1.9,4.1,4.1v6.7c0,2.3-1.9,4.1-4.1,4.1h-35.7c-2.3,0-4.1-1.9-4.1-4.1v-6.7
			C292.7,90.6,294.5,88.8,296.8,88.8z"/>
		<path fill="#FFBA27" d="M296.8,118.7h35.7c2.3,0,4.1,1.9,4.1,4.1v6.7c0,2.3-1.9,4.1-4.1,4.1h-35.7c-2.3,0-4.1-1.9-4.1-4.1v-6.7
			C292.7,120.6,294.5,118.7,296.8,118.7z"/>
		<path fill="#FFBA27" d="M296.8,148.6h35.7c2.3,0,4.1,1.9,4.1,4.1v6.7c0,2.3-1.9,4.1-4.1,4.1h-35.7c-2.3,0-4.1-1.9-4.1-4.1v-6.7
			C292.7,150.5,294.5,148.6,296.8,148.6z"/>
		<path fill="#FFBA27" d="M296.8,178.6h35.7c2.3,0,4.1,1.9,4.1,4.1v6.7c0,2.3-1.9,4.1-4.1,4.1h-35.7c-2.3,0-4.1-1.9-4.1-4.1v-6.7
			C292.7,180.4,294.5,178.6,296.8,178.6z"/>
		<path fill="#FFBA27" d="M340.8,103.7h35.7c2.3,0,4.1,1.9,4.1,4.1v6.7c0,2.3-1.9,4.1-4.1,4.1h-35.7c-2.3,0-4.1-1.9-4.1-4.1v-6.7
			C336.7,105.6,338.5,103.7,340.8,103.7z"/>
		<path fill="#FFBA27" d="M340.8,133.7h35.7c2.3,0,4.1,1.9,4.1,4.1v6.7c0,2.3-1.9,4.1-4.1,4.1h-35.7c-2.3,0-4.1-1.9-4.1-4.1v-6.7
			C336.7,135.5,338.5,133.7,340.8,133.7z"/>
		<path fill="#FFBA27" d="M340.8,193.5h35.7c2.3,0,4.1,1.9,4.1,4.1v6.7c0,2.3-1.9,4.1-4.1,4.1h-35.7c-2.3,0-4.1-1.9-4.1-4.1v-6.7
			C336.7,195.4,338.5,193.5,340.8,193.5z"/>
		<path fill="#FFBA27" d="M79.2,118.7h35.7c2.3,0,4.1,1.9,4.1,4.1v6.7c0,2.3-1.9,4.1-4.1,4.1H79.2c-2.3,0-4.1-1.9-4.1-4.1l0-6.7
			C75.1,120.6,76.9,118.7,79.2,118.7z"/>
		<path fill="#FFBA27" d="M79.2,148.6h35.7c2.3,0,4.1,1.9,4.1,4.1v6.7c0,2.3-1.9,4.1-4.1,4.1H79.2c-2.3,0-4.1-1.9-4.1-4.1v-6.7
			C75.1,150.5,76.9,148.6,79.2,148.6z"/>
		<path fill="#FFBA27" d="M79.2,178.6h35.7c2.3,0,4.1,1.9,4.1,4.1v6.7c0,2.3-1.9,4.1-4.1,4.1H79.2c-2.3,0-4.1-1.9-4.1-4.1l0-6.7
			C75.1,180.4,76.9,178.6,79.2,178.6z"/>
		<path fill="#FFBA27" d="M35.2,133.7h35.7c2.3,0,4.1,1.9,4.1,4.1v6.7c0,2.3-1.9,4.1-4.1,4.1H35.2c-2.3,0-4.1-1.9-4.1-4.1v-6.7
			C31.1,135.5,32.9,133.7,35.2,133.7z"/>
		<path fill="#FFBA27" d="M35.2,103.7h35.7c2.3,0,4.1,1.9,4.1,4.1v6.7c0,2.3-1.9,4.1-4.1,4.1H35.2c-2.3,0-4.1-1.9-4.1-4.1v-6.7
			C31.1,105.6,32.9,103.7,35.2,103.7z"/>
	</g>
	<path fill="#FFFFFF" d="M219.1,251.9l-73.9,12.2c-3.2,0.5-6.2-1.7-6.5-4.9L114.4,52c-0.4-3.4,2.2-6.3,5.6-6.3h70.3
		c2.8,0,5.2,2.1,5.6,4.9l27.9,194.9C224.2,248.5,222.1,251.4,219.1,251.9z"/>
	<path fill="#1E3067" d="M119.3,170.4l-13,81.7c-0.3,1.6,1.1,2.9,2.7,2.7l20.6-3.5l-1.5-12.1l-4,0.7c-1.6,0.3-2.9-1.1-2.7-2.7
		l3.6-23L119.3,170.4z"/>
	<path fill="#003189" d="M232.7,251.3L204.2,42c-0.4-2.8-2.8-4.9-5.6-4.9h-89.8c-3.4,0-6,3-5.6,6.4l28.4,224
		c0.4,3.2,3.4,5.4,6.5,4.9l89.9-14.7C231,257.2,233.1,254.4,232.7,251.3z M219.1,251.9l-73.9,12.2c-3.2,0.5-6.2-1.7-6.5-4.9
		L114.4,52c-0.4-3.4,2.2-6.3,5.6-6.3h70.3c2.8,0,5.2,2.1,5.6,4.9l27.9,194.9C224.2,248.5,222.1,251.4,219.1,251.9z"/>
	<path fill="#4400B3" d="M247.4,56.3"/>
	<ellipse fill="#BC4B59" cx="317.6" cy="236.9" rx="9.2" ry="11.5"/>
	<polygon fill="#FFFFFF" points="172.5,94.7 171.4,94.6 167.9,101.3 160.8,94.3 160.3,94.2 158.8,108.8 170.2,128.6 178.8,113.4 	
		"/>
	<path fill="#FFE066" d="M233.4,62.5c0,0-9.1,14.3,6.7,21.5l2,7.4l10.7-9.7l-1-1.2c0,0,3-1.8,3.2-5L233.4,62.5z"/>
	<path fill="#B73443" d="M234.9,55.5c0,0-2.5,1-2,4.8c0,0-0.1,8.5,0.7,11c0.1,0.2,0.4,0.2,0.4,0c0.4-1.2,1.3-3.7,2.8-3.1
		c1.9,0.7,4.6,4.9,5.3,8.8c0.7,3.9,12.9,1.7,13.8,0c0.9-1.7,4.9-14.1,1-18.1c0,0,0.1-5.8-5.3-6.9C246.1,50.9,235.5,48.6,234.9,55.5z
		"/>
	<path fill="#B73443" stroke="#CFD9E9" stroke-miterlimit="10" d="M237.8,166.9c-1.3,0.4-2.3,1.6-2.2,3c0.1,2.6,0.5,7,1.9,10.9
		c2.2,6-0.3,13.6,0.7,21.3c0.9,7.3,2.6,14.6,4.4,17.9c0.2,0.4,0.4,0.9,0.4,1.3c0.2,2.5,1,10.6,5.2,15.8c0.4,0.5,0.6,1.1,0.7,1.7
		c0.3,2.9,1.1,11.7,2.7,18.9c0.3,1.2,1.3,2.2,2.6,2.4l9.7,1.4c1.9,0.3,3.5-1.2,3.5-3.1c-0.1-4-0.2-10.3,0.1-13.2
		c0.4-4.5,1.4-14.5-2.9-23.5s-1.6-30.8-0.8-32.4c0.8-1.6,2.8-3.5,4.1-8c1.1-4,2.4-3.1,2.8-8.7c0.1-1.5-0.8-2.8-2.3-3.2
		C262.4,167.8,247.2,164.2,237.8,166.9z"/>
	<path fill="#F98B53" d="M254.5,81.6c-0.4-0.2-0.8-0.3-1.2-0.1c-2.1,0.9-10.9,5.4-14.8,17.1c-4.3,13.2-10.6,47.4-5.2,57.9
		c0.1,0.1,0.1,0.2,0.1,0.4c0.2,1.2,1.2,7.5,1.2,10.8c0,0.8,0.7,1.4,1.5,1.2c5.1-0.9,21.1-3,33.1,2.4c0.7,0.3,1.6-0.1,1.8-0.9
		c0.6-3,1.9-9.5,1.4-12c-0.5-3.3,3.8-19.6,4.5-24.8s0-10.4,0.7-16.5c0.7-6.1-12.1-22.5-15.3-25.1C259.4,89.8,256.7,83,254.5,81.6z"
		/>
	<path fill="#E2684B" d="M247.8,90.9c0,0-3.8,3-3.4,8.6c0.4,5.6,2.9,10.9,10.8,14.7c7.9,3.8,4.3,9.9,2.4,13.9
		c-2,4-6.5,14.7-6.5,15.7s2.4,3.7,3.9,4.3c1.6,0.6,3.4,1.4,4.8,0.3s7.8-30.8,7.8-30.8L257,100.4L247.8,90.9z"/>
	<path fill="#FFE066" d="M178.5,77c0,0,2,9.4-6,13.6c0,0-1.5,3.4-0.8,4.8l-0.2,5l-3.7,3.4l-9.1-11.7c0,0,3.4-4.2,2.7-5.4
		c-0.7-1.2-2.3-3.1-1.8-5.4s3.9-8.8,3.9-8.8L178.5,77z"/>
	<path fill="#FF701E" d="M164.7,100.6l2.9,2.7c0,0-1.6,4-1.4,4.7c0.2,0.7,4.1,17.7,4.1,19.1c0,1.4,2.6-8.3,2.3-11.4s-3.8-12-3.8-12
		l1.7-2.4l-2.6-0.5L164.7,100.6z"/>
	<polygon fill="#FFFFFF" points="172.5,94.7 171.6,93.7 167.9,100.9 171.6,101.6 	"/>
	<polyline fill="#FFFFFF" points="167.9,100.9 159.4,91.4 158.2,92.6 158.2,94.4 164.5,101.6 167.9,100.9 	"/>
	<path fill="#1E3067" d="M187.9,239.2c0,0,2.2,4.1,3.8,5.8s9.7,5.2,8.8,5.9s-5.8,3.1-10.3,1.6s-2.3-2-6.2-2.2
		c-3.9-0.2-5.8-1.2-5.6-3c0.2-1.8,0.8-3.9,0.6-5L187.9,239.2z"/>
	<path fill="#1E3067" d="M157.3,242.4c0,0,1.2,3.9,1.2,5.5s0.7,3.9,0,4.3c-0.7,0.3-4.5,6.3-9.9-1c0,0-1.6-1.6,0.4-5.2
		c2-3.6-0.1-9-0.1-9L157.3,242.4z"/>
	<path fill="#FFE066" d="M143.3,160.5l5.1,5.4l2.5-7.7l-3.7-2.1C147.3,156.1,142.7,157.3,143.3,160.5z"/>
	<path fill="#003189" d="M150.4,157.7c-1.1,1.9-6.5,12.2-2.9,25.9c0,0,0,0.1,0,0.1c0.2,0.3,1.1,2.2,0.9,7
		c-0.1,5.3-4.1,13.7-4.2,16.8c-0.1,3.1,1.2,6.7,1.2,9.1s-0.8,13,0,16.2c0.8,3.1,2.7,9.8,4.1,10c0,0,5,1.5,7.6,0.8s2.2-4.9,1.8-6.1
		c-0.4-1.2-2.2-5.3-2-7.1c0.1-1.8,2.8-10.5,2.3-12.8c-0.4-2.3-1-6.7-0.7-7.9c0.3-1.2,4.1-17.5,4.1-19.6c0-1.6,0.8-8.3,1.7-11.8
		c0.2-0.6,1-0.5,1.1,0c0.6,2.8,1.7,8,2.6,10c1.3,2.9,2.5,6.2,2.9,7.3c0.4,1.1,1.8,18.3,3.3,21s1.5,14.1,2.4,15.9c1,1.8,1.2,9.8,2,10
		c0.8,0.3,7.1,2.6,9.9-2s-1.6-17.8-1.8-20c-0.1-2.2-1.1-15.7-0.8-18.9s-0.7-6.1-0.8-8.5c-0.1-2.4,1.4-9.1,1.2-12.3
		c-0.1-2.8-1.5-16.5-1.7-19.1c0-0.3-0.2-0.5-0.5-0.5l-33.1-4.2C150.7,157.4,150.5,157.5,150.4,157.7z"/>
	<path fill="#FFE066" d="M252.9,144.5l-4,1.6c-0.1,0-0.2,0-0.3,0l-6.6-0.8c-0.1,0-0.2,0-0.3,0.1l-2.7,1.3c-0.3,0.1-0.4,0.5-0.3,0.8
		l0.3,0.7c0.1,0.2,0.3,0.3,0.5,0.3l2.8,0.2c0.2,0,0.3,0.1,0.4,0.2l0.7,0.8c0.1,0.2,0.2,0.4,0.1,0.6l-0.4,0.9
		c-0.1,0.1-0.1,0.2-0.3,0.3l-2.8,1.5c-0.1,0.1-0.2,0.1-0.3,0.3l-1,2.2c-0.1,0.3,0,0.6,0.2,0.7l0,0c0.2,0.2,0.6,0.1,0.7-0.1l1.2-1.4
		c0,0,0.1-0.1,0.1-0.1l1.2-0.8c0.2-0.1,0.4-0.1,0.5-0.1l0,0c0.1,0.1,0.1,0.3,0,0.3l-0.3,0.1c-0.1,0-0.2,0.1-0.2,0.1l-1.5,1.2
		c-0.1,0.1-0.1,0.1-0.2,0.2l-0.6,1.5c-0.1,0.1-0.1,0.3,0,0.4l0.3,0.9c0.1,0.3,0.3,0.4,0.6,0.4l1.1-0.2c0.2,0,0.3-0.1,0.4-0.3
		l0.7-1.2c0-0.1,0.1-0.1,0.2-0.2l1.8-1.1c0.1-0.1,0.2,0,0.2,0.1l-0.5,1.2c0,0,0,0.1,0,0.1l-0.5,3.1c0,0.1,0,0.1,0,0.2l0.4,2.1
		c0,0.2,0.2,0.4,0.4,0.4l0.4,0.1c0.3,0.1,0.6-0.1,0.7-0.3l0.5-1.2c0-0.1,0.1-0.2,0-0.3l-0.1-1.9c0-0.2,0.1-0.3,0.2-0.5l1.8-1.6
		c0.1-0.1,0.2-0.1,0.3-0.1l2.5-0.6c0.1,0,0.1,0,0.2-0.1l3.7-2.4c0.1,0,0.1-0.1,0.2-0.2l3-4.4c0-0.1,0.1-0.1,0.1-0.2l0.6-2.5
		c0.1-0.3-0.1-0.6-0.4-0.7l-5.2-1.9C253.1,144.5,253,144.5,252.9,144.5z"/>
	<path fill="#F98B53" d="M247.1,90.9c0,0-3.4,4.5-2.6,9c0.8,4.5,3.2,8.5,11,13.4s5.5,9,4.8,11.1c-0.7,2.1-8.8,18-8.2,19.1
		c0.5,1.1,1.8,5.2,7.5,5.7c5.7,0.5,13-32.9,13-32.9l-15.6-25.9L247.1,90.9z"/>
	<path fill="#D34A23" d="M297.9,210.2l12.5,9.1L299,205.6c0,0,4.5-12.1,15.3-11.9c10.8,0.2,11,3.5,11,3.5l-11.1,6.3l13.5-4l1,1.5
		c0,0,8.9,1.1,12.1,7.5l-9.3,5.2l10.8-3.2c0,0,3.3,5.8,1,11.5c0,0,0.4,18-13,18c-13.4,0-25.9,0-25.9,0s-13.4-0.7-13.4-15.9
		C291,209,297.9,210.2,297.9,210.2z"/>
	<path fill="#B73443" d="M163,77c0,0-0.7,6-3.6,8.3c0,0-7-1,0-18.1c0,0,1.8-2.4,6.9-1.7c0,0,1.1-1.9,3.9-1c0,0,9.9-2.2,10.1,3.7
		c0.1,6,4,5,4,5l-2.4,1.5c0,0,1.9,1.7,1.8,3.1l-2.3-0.3c0,0-1,2.4-2.6,3l-0.8-2.3c0,0-7.5,0.7-10-1.4C167.9,76.7,165,78.2,163,77z"
		/>
	<path fill="#003189" d="M157.5,91.4c0,0,1.5-0.4,2.4,0c1,0.4,1.8,10,6.2,20.8c4.5,10.7,4.1,13.2,4.1,13.2s3.5-9.2,5.2-12.2
		c1.6-3-3.8-19.4-3.8-19.4s1.9,1.1,2.7,2.6c0.8,1.5,11.1,5.2,11.7,7.5c0.5,2.3,2,10.1,1.2,13c0,0,1.6,14.8,4.1,18.7c0,0,0.7,0.8,0,2
		s0.7,4.8,0.3,5.8c-0.4,1.1-2.1,3.3-1.9,4.1c0.1,0.8,1.8,4.6-2.2,11.5c0,0,1.2,4.8-2.4,6.9l-35.3-7.7l-2.4-2.1c0,0-4.1,1-4.1,4.1
		c0,0,0.8,2.2-3-4.1c-3.8-6.3-10.9-20.5-9.1-25.2c1.8-4.8,6-19.4,6-21.3c0-1.9,2.7-11.5,13.3-13.1C150.4,96.5,153.4,96.1,157.5,91.4
		z"/>
	<linearGradient id="SVGID_1_" gradientUnits="userSpaceOnUse" x1="2.305138e-002" y1="149.1691" x2="409.3986" y2="149.1691">
		<stop  offset="0" style="stop-color:#FFFFFF"/>
		<stop  offset="5.194867e-002" style="stop-color:#FFFFFF;stop-opacity:0.9481"/>
		<stop  offset="1" style="stop-color:#FFFFFF;stop-opacity:0"/>
	</linearGradient>
	<rect x="0" y="0.7" fill="url(#SVGID_1_)" width="409.4" height="297"/>
	
		<linearGradient id="SVGID_2_" gradientUnits="userSpaceOnUse" x1="-1837.3616" y1="-2060.4719" x2="-1539.4977" y2="-2060.4719" gradientTransform="matrix(4.489700e-011 -1 1 4.489700e-011 2265.0349 -1539.4977)">
		<stop  offset="0" style="stop-color:#FFFFFF"/>
		<stop  offset="1" style="stop-color:#FFFFFF;stop-opacity:0"/>
	</linearGradient>
	<rect x="0" y="0" fill="url(#SVGID_2_)" width="409.1" height="297.9"/>
	
		<linearGradient id="SVGID_3_" gradientUnits="userSpaceOnUse" x1="-1224.5968" y1="-1754.87" x2="-1193.408" y2="-1754.87" gradientTransform="matrix(4.489700e-011 -1 1 4.489700e-011 2020.6201 -954.2675)">
		<stop  offset="0.3096" style="stop-color:#FFFFFF"/>
		<stop  offset="1" style="stop-color:#FFFFFF;stop-opacity:0"/>
	</linearGradient>
	<rect x="236.8" y="239.1" fill="url(#SVGID_3_)" width="57.9" height="31.2"/>
</g>
</svg>
