<?xml version="1.0" encoding="utf-8"?>
<!-- Generator: Adobe Illustrator 18.0.0, SVG Export Plug-In . SVG Version: 6.00 Build 0)  -->
<!DOCTYPE svg PUBLIC "-//W3C//DTD SVG 1.1//EN" "http://www.w3.org/Graphics/SVG/1.1/DTD/svg11.dtd">
<svg version="1.1" id="Calque_1" xmlns="http://www.w3.org/2000/svg" xmlns:xlink="http://www.w3.org/1999/xlink" x="0px" y="0px"
	 viewBox="0 0 204.9 40.2" enable-background="new 0 0 204.9 40.2" xml:space="preserve">
<g>
	<g>
		<path fill="#223A7A" d="M0.9,26.9C0.3,26.3,0,25.5,0,24.4V3.4c0-1.1,0.3-1.9,0.9-2.5C1.4,0.3,2.3,0,3.4,0h8c3,0,5.7,0.5,7.9,1.7
			s3.9,2.7,5.1,4.8c1.2,2.1,1.8,4.5,1.8,7.4s-0.6,5.4-1.7,7.5c-1.2,2.1-2.9,3.7-5.1,4.8s-4.9,1.7-8,1.7H3.4
			C2.3,27.7,1.4,27.5,0.9,26.9z M10.8,21.9c2.7,0,4.7-0.7,6.1-2c1.3-1.3,2-3.4,2-6.1s-0.7-4.7-2-6c-1.3-1.3-3.4-2-6.1-2H7.3v16.1
			H10.8z"/>
		<path fill="#223A7A" d="M29.6,5.5c-0.7-0.6-1-1.3-1-2.3s0.3-1.7,1-2.3S31.1,0,32.2,0c1.1,0,2,0.3,2.6,0.9c0.6,0.6,1,1.3,1,2.3
			s-0.3,1.7-1,2.3c-0.7,0.6-1.5,0.9-2.6,0.9C31.1,6.4,30.2,6.1,29.6,5.5z M29.8,27c-0.6-0.5-0.9-1.3-0.9-2.3V12c0-1,0.3-1.7,0.9-2.3
			C30.5,9.2,31.2,9,32.2,9c0.9,0,1.7,0.3,2.3,0.8c0.6,0.5,0.9,1.3,0.9,2.3v12.7c0,1-0.3,1.7-0.9,2.3c-0.6,0.5-1.4,0.8-2.3,0.8
			C31.3,27.7,30.5,27.5,29.8,27z"/>
		<path fill="#223A7A" d="M54,10.9c1.3,1.3,2,3.4,2,6.1v7.7c0,0.9-0.3,1.7-0.9,2.2c-0.5,0.5-1.3,0.8-2.3,0.8c-0.9,0-1.6-0.2-2.1-0.7
			c-0.5-0.5-0.9-1.2-0.9-2c-0.4,0.9-0.9,1.6-1.7,2.1c-0.8,0.5-1.8,0.7-2.9,0.7c-1.3,0-2.4-0.3-3.4-0.8c-1-0.5-1.8-1.2-2.4-2.1
			c-0.6-0.9-0.9-1.9-0.9-3c0-1.3,0.4-2.3,1-3.1c0.7-0.8,1.7-1.3,3.2-1.7c1.5-0.4,3.5-0.5,6-0.5h1V16c0-0.9-0.2-1.5-0.6-1.9
			c-0.4-0.4-1.1-0.6-2-0.6c-1,0-2.5,0.4-4.4,1c-0.6,0.2-1,0.3-1.4,0.3c-0.6,0-1.1-0.2-1.5-0.7c-0.4-0.4-0.5-1-0.5-1.7
			c0-0.5,0.1-1,0.3-1.3c0.2-0.4,0.6-0.7,1.1-0.9c0.9-0.4,1.9-0.8,3.3-1.1c1.3-0.3,2.6-0.4,3.9-0.4C50.6,8.9,52.6,9.6,54,10.9z
			 M48.9,22.5c0.6-0.6,0.9-1.4,0.9-2.4v-0.4h-0.6c-1.6,0-2.7,0.1-3.4,0.4c-0.7,0.3-1,0.8-1,1.4c0,0.6,0.2,1,0.5,1.4
			c0.4,0.4,0.8,0.5,1.4,0.5C47.6,23.4,48.3,23.1,48.9,22.5z"/>
		<path fill="#223A7A" d="M78.2,9.8c0.6,0.5,0.9,1.3,0.9,2.2v13.3c0,3-0.9,5.3-2.7,6.9c-1.8,1.6-4.5,2.3-8,2.3
			c-1.3,0-2.6-0.1-3.9-0.4c-1.2-0.3-2.2-0.6-3-1.1c-0.4-0.3-0.8-0.6-1-0.9c-0.3-0.4-0.4-0.9-0.4-1.3c0-0.7,0.2-1.3,0.5-1.7
			s0.8-0.7,1.4-0.7c0.4,0,1.3,0.2,2.4,0.5c0.8,0.2,1.4,0.4,2,0.6s1.2,0.2,1.8,0.2c1.5,0,2.6-0.3,3.3-0.9c0.7-0.6,1-1.6,1-3v-1.4
			c-0.5,0.8-1.3,1.5-2.3,1.9c-1,0.5-2.1,0.7-3.3,0.7c-1.6,0-3-0.4-4.2-1.1c-1.2-0.7-2.2-1.8-2.9-3.1c-0.7-1.4-1-3-1-4.7
			s0.4-3.4,1-4.7c0.7-1.4,1.7-2.5,2.9-3.2C63.9,9.4,65.4,9,66.9,9c1.2,0,2.3,0.3,3.3,0.8c1,0.5,1.8,1.2,2.3,2c0-0.9,0.4-1.5,0.9-2
			c0.6-0.5,1.3-0.7,2.3-0.7C76.8,9,77.6,9.3,78.2,9.8z M71.6,21c0.6-0.7,0.9-1.7,0.9-3c0-1.3-0.3-2.3-0.9-3
			c-0.6-0.7-1.5-1.1-2.7-1.1c-1.1,0-2,0.4-2.6,1.1c-0.6,0.7-0.9,1.7-0.9,3.1c0,1.3,0.3,2.3,1,3C67,21.7,67.9,22,69,22
			C70.1,22.1,71,21.7,71.6,21z"/>
		<path fill="#223A7A" d="M118.6,9.5c0.5,0.4,0.7,1.1,0.7,2c0,1-0.2,1.7-0.7,2.2c-0.4,0.4-1.3,0.7-2.5,0.9l-1.1,0.1
			c-1.2,0.1-2.1,0.5-2.6,1.2c-0.5,0.6-0.8,1.5-0.8,2.6v6.3c0,1-0.3,1.7-0.9,2.3c-0.6,0.5-1.4,0.8-2.3,0.8c-0.9,0-1.7-0.3-2.3-0.8
			c-0.6-0.5-0.9-1.3-0.9-2.3V11.9c0-0.9,0.3-1.7,0.9-2.2c0.6-0.5,1.4-0.8,2.3-0.8c0.9,0,1.7,0.3,2.2,0.8c0.5,0.5,0.9,1.2,0.9,2.1
			v0.7c0.4-1.1,1-1.9,1.9-2.5c0.9-0.6,1.8-0.9,2.8-0.9l0.5,0C117.4,8.9,118.1,9.1,118.6,9.5z"/>
		<path fill="#223A7A" d="M121.2,5.5c-0.7-0.6-1-1.3-1-2.3s0.3-1.7,1-2.3c0.7-0.6,1.5-0.9,2.6-0.9c1.1,0,2,0.3,2.6,0.9s1,1.3,1,2.3
			s-0.3,1.7-1,2.3s-1.5,0.9-2.6,0.9C122.7,6.4,121.9,6.1,121.2,5.5z M121.5,27c-0.6-0.5-0.9-1.3-0.9-2.3V12c0-1,0.3-1.7,0.9-2.3
			c0.6-0.5,1.4-0.8,2.3-0.8c0.9,0,1.7,0.3,2.3,0.8c0.6,0.5,0.9,1.3,0.9,2.3v12.7c0,1-0.3,1.7-0.9,2.3c-0.6,0.5-1.4,0.8-2.3,0.8
			C122.9,27.7,122.1,27.5,121.5,27z"/>
		<path fill="#223A7A" d="M147.1,22.4c0.4,0.4,0.5,1,0.5,1.7c0,1-0.5,1.7-1.4,2.2c-0.9,0.4-1.8,0.8-3,1c-1.2,0.3-2.2,0.4-3.1,0.4
			c-2,0-3.8-0.4-5.3-1.2c-1.5-0.8-2.6-1.8-3.5-3.3c-0.8-1.4-1.2-3.1-1.2-5c0-1.8,0.4-3.4,1.2-4.9s1.8-2.6,3.3-3.4
			c1.4-0.8,3-1.2,4.7-1.2c1.7,0,3.2,0.4,4.5,1.1c1.3,0.7,2.3,1.8,3,3.1c0.7,1.3,1.1,3,1.1,4.7c0,0.6-0.1,1-0.4,1.3
			c-0.3,0.3-0.6,0.4-1.1,0.4h-9.8c0.2,1.2,0.5,2,1.2,2.6c0.6,0.5,1.5,0.8,2.6,0.8c0.6,0,1.2-0.1,1.7-0.2c0.5-0.1,1.1-0.3,1.7-0.6
			c0.4-0.1,0.7-0.3,1.1-0.4c0.4-0.1,0.7-0.2,1-0.2C146.3,21.7,146.7,21.9,147.1,22.4z M137.3,14.2c-0.5,0.5-0.8,1.3-0.9,2.4h5.8
			c-0.1-2.2-1.1-3.3-2.8-3.3C138.5,13.4,137.9,13.6,137.3,14.2z"/>
		<path fill="#223A7A" d="M167.7,10.8c1.1,1.3,1.6,3.3,1.6,5.9v8c0,0.9-0.3,1.7-0.9,2.2c-0.6,0.5-1.4,0.8-2.4,0.8s-1.8-0.3-2.4-0.8
			c-0.6-0.5-0.9-1.3-0.9-2.2V17c0-1.1-0.2-1.9-0.6-2.4c-0.4-0.5-0.9-0.7-1.7-0.7c-1,0-1.7,0.3-2.3,0.9c-0.6,0.6-0.9,1.5-0.9,2.5v7.3
			c0,0.9-0.3,1.7-0.9,2.2c-0.6,0.5-1.4,0.8-2.4,0.8c-1,0-1.8-0.3-2.4-0.8c-0.6-0.5-0.9-1.3-0.9-2.2V11.9c0-0.9,0.3-1.6,0.9-2.1
			c0.6-0.5,1.4-0.9,2.4-0.9c0.9,0,1.7,0.3,2.2,0.8c0.5,0.5,0.9,1.2,0.9,2c0.6-0.9,1.5-1.7,2.5-2.2c1-0.5,2.2-0.8,3.4-0.8
			C165.1,8.9,166.7,9.5,167.7,10.8z"/>
		<path fill="#223A7A" d="M186.3,25.3c0,0.9-0.3,1.5-1,1.9s-1.6,0.6-2.8,0.5l-1-0.1c-2.2-0.2-3.9-0.9-5.1-2
			c-1.2-1.2-1.7-2.8-1.7-4.9v-6.5h-1.1c-2,0-3-0.8-3-2.4s1-2.4,3-2.4h1.1V6.9c0-0.9,0.3-1.7,0.9-2.2c0.6-0.5,1.4-0.9,2.4-0.9
			c1,0,1.8,0.3,2.4,0.9c0.6,0.5,0.9,1.3,0.9,2.2v2.4h2c2,0,3,0.8,3,2.4s-1,2.4-3,2.4h-2v7.1c0,0.4,0.1,0.9,0.4,1.2
			c0.3,0.3,0.6,0.5,1.1,0.5l1.1,0.1C185.4,23.2,186.3,23.9,186.3,25.3z"/>
		<path fill="#223A7A" d="M204.2,22.4c0.4,0.4,0.5,1,0.5,1.7c0,1-0.5,1.7-1.4,2.2c-0.9,0.4-1.8,0.8-3,1c-1.1,0.3-2.2,0.4-3.1,0.4
			c-2,0-3.8-0.4-5.3-1.2c-1.5-0.8-2.6-1.8-3.4-3.3c-0.8-1.4-1.2-3.1-1.2-5c0-1.8,0.4-3.4,1.2-4.9s1.9-2.6,3.3-3.4
			c1.4-0.8,3-1.2,4.7-1.2c1.7,0,3.2,0.4,4.5,1.1c1.3,0.7,2.3,1.8,3,3.1c0.7,1.3,1.1,3,1.1,4.7c0,0.6-0.1,1-0.4,1.3
			c-0.3,0.3-0.6,0.4-1.1,0.4h-9.8c0.2,1.2,0.5,2,1.2,2.6c0.6,0.5,1.5,0.8,2.6,0.8c0.6,0,1.2-0.1,1.7-0.2c0.5-0.1,1.1-0.3,1.7-0.6
			c0.4-0.1,0.7-0.3,1.1-0.4c0.4-0.1,0.7-0.2,1-0.2C203.4,21.7,203.8,21.9,204.2,22.4z M194.4,14.2c-0.5,0.5-0.8,1.3-0.9,2.4h5.8
			c-0.1-2.2-1.1-3.3-2.8-3.3C195.6,13.4,194.9,13.6,194.4,14.2z"/>
		<g>
			<path fill="#7533FF" d="M101.5,18.4c0,5.2-4.2,9.5-9.5,9.5v-5.1c2.4,0,4.3-1.9,4.3-4.3v0H101.5z"/>
			<path fill="#00CFFF" d="M101.5,18.4h-5.2c0-1.2-0.5-2.2-1.3-3l3.7-3.7C100.5,13.4,101.5,15.8,101.5,18.4z"/>
			<path fill="#FF0060" d="M98.7,11.7l-3.7,3.7c-0.8-0.8-1.8-1.3-3-1.3c-2.4,0-4.3,1.9-4.3,4.3s1.9,4.3,4.3,4.3v5.1
				c-5.2,0-9.5-4.2-9.5-9.5c0-5.2,4.2-9.5,9.5-9.5C94.7,8.9,97,10,98.7,11.7z"/>
		</g>
	</g>
	<g>
		<g>
			<path fill="#6B6B6A" d="M176,40.2v-8.6h2.7c0.5,0,1,0.1,1.4,0.2c0.4,0.1,0.7,0.3,0.9,0.4c0.2,0.2,0.4,0.4,0.5,0.7
				c0.1,0.3,0.2,0.6,0.2,0.9c0,0.2,0,0.4-0.1,0.6c-0.1,0.2-0.2,0.4-0.3,0.5c-0.1,0.2-0.3,0.3-0.5,0.4c-0.2,0.1-0.4,0.2-0.7,0.3
				c0.6,0.1,1.1,0.4,1.4,0.7c0.3,0.3,0.5,0.8,0.5,1.3c0,0.4-0.1,0.7-0.2,1c-0.1,0.3-0.3,0.6-0.6,0.8c-0.3,0.2-0.6,0.4-0.9,0.5
				c-0.4,0.1-0.8,0.2-1.3,0.2H176z M177.1,35.4h1.5c0.3,0,0.6,0,0.9-0.1c0.2-0.1,0.4-0.2,0.6-0.3c0.2-0.1,0.3-0.3,0.4-0.5
				c0.1-0.2,0.1-0.4,0.1-0.6c0-0.5-0.2-0.9-0.5-1.1c-0.3-0.2-0.8-0.4-1.4-0.4h-1.6V35.4z M177.1,36.3v3h1.9c0.3,0,0.6,0,0.9-0.1
				c0.2-0.1,0.4-0.2,0.6-0.3c0.2-0.1,0.3-0.3,0.3-0.5c0.1-0.2,0.1-0.4,0.1-0.6c0-0.4-0.2-0.8-0.5-1.1c-0.3-0.3-0.8-0.4-1.4-0.4
				H177.1z"/>
			<path fill="#6B6B6A" d="M189,31.6v0.9h-4.1v2.9h3.3v0.9h-3.3v2.9h4.1v0.9h-5.3v-8.6H189z"/>
			<path fill="#6B6B6A" d="M196.5,31.6v1h-2.8v7.6h-1.2v-7.6h-2.8v-1H196.5z"/>
			<path fill="#6B6B6A" d="M204.8,40.2h-0.9c-0.1,0-0.2,0-0.3-0.1c-0.1-0.1-0.1-0.1-0.1-0.2l-0.8-2.1h-3.9l-0.8,2.1
				c0,0.1-0.1,0.1-0.1,0.2c-0.1,0.1-0.2,0.1-0.3,0.1h-0.9l3.4-8.6h1.2L204.8,40.2z M199.2,37h3.2l-1.3-3.5c-0.1-0.2-0.2-0.5-0.3-0.8
				c0,0.2-0.1,0.3-0.1,0.5c0,0.1-0.1,0.3-0.1,0.4L199.2,37z"/>
		</g>
	</g>
</g>
</svg>
