<svg xmlns="http://www.w3.org/2000/svg" viewBox="0 0 548.3 257.26"><title>TTVFichier 1</title><g id="Calque_2" data-name="Calque 2"><g id="Calque_1-2" data-name="Calque 1"><path d="M35.32,93.85A8.4,8.4,0,0,1,33,87.63V15.38H8.63q-8,0-8-7.09t8-7.09h66q8,0,8,7.09t-8,7.09H50.23V87.63a8.05,8.05,0,0,1-8.56,8.56A8.58,8.58,0,0,1,35.32,93.85Z" style="fill:#223a7a"/><path d="M169.83,89.37a6.27,6.27,0,0,1-2.47,5.08,9,9,0,0,1-5.82,2,8.71,8.71,0,0,1-7.36-4l-17.79-27a17.36,17.36,0,0,0-5.69-6,15.55,15.55,0,0,0-7.83-1.74H109.77v30A8.73,8.73,0,0,1,107.49,94a8.19,8.19,0,0,1-6.15,2.34A8.41,8.41,0,0,1,95.12,94a8.58,8.58,0,0,1-2.34-6.35V9.36a8,8,0,0,1,2.21-6,8.38,8.38,0,0,1,6.09-2.14h33.45q16.05,0,24.42,7.16T167.29,29q0,11-6.22,18t-17.59,9a16.88,16.88,0,0,1,6.82,3.34,29.48,29.48,0,0,1,5.75,6.69l12.17,18.6A8.46,8.46,0,0,1,169.83,89.37ZM146.42,40.74Q151,37.06,151,29.43t-4.55-11.3q-4.55-3.54-14.31-3.55H109.63V44.42h22.48Q141.87,44.42,146.42,40.74Z" style="fill:#223a7a"/><path d="M203.88,90.84A39.36,39.36,0,0,1,188.29,74q-5.49-11-5.49-25.69t5.42-25.62A38.93,38.93,0,0,1,203.81,5.89Q214,0,227.76,0t23.88,5.89a39.06,39.06,0,0,1,15.52,16.79q5.42,10.91,5.42,25.62T267.09,74a39.38,39.38,0,0,1-15.59,16.86q-10.1,5.89-23.75,5.89T203.88,90.84ZM248,74q7.29-9,7.29-25.69T248,22.68q-7.29-8.9-20.27-8.9t-20.4,8.9q-7.29,8.9-7.29,25.62T207.36,74q7.29,9,20.4,9T248,74Z" style="fill:#223a7a"/><path d="M299.47,86.69q-10-10-10-29.3V9.1a8.54,8.54,0,0,1,2.27-6.22,9.26,9.26,0,0,1,12.31,0,8.55,8.55,0,0,1,2.27,6.22V58.33q0,12.17,5.75,18.39t16.86,6.22q11,0,16.72-6.29t5.75-18.33V9.1a8.54,8.54,0,0,1,2.27-6.22,9.26,9.26,0,0,1,12.31,0,8.55,8.55,0,0,1,2.27,6.22v48.3q0,19.13-10,29.23t-29.3,10.1Q309.5,96.72,299.47,86.69Z" style="fill:#223a7a"/><path d="M463.75.4a9.4,9.4,0,0,1,6,2.14,6.59,6.59,0,0,1,2.68,5.35,8.63,8.63,0,0,1-.8,3.34L434.59,91a8.75,8.75,0,0,1-3.68,3.95,10.64,10.64,0,0,1-10.57,0A8.74,8.74,0,0,1,416.66,91L379.73,11.24a8.42,8.42,0,0,1-.8-3.21,6.66,6.66,0,0,1,2.74-5.49A9.85,9.85,0,0,1,387.9.4a8.2,8.2,0,0,1,4.21,1.14,7.56,7.56,0,0,1,3,3.41l30.77,68.36L456.66,4.95A7.31,7.31,0,0,1,463.75.4Z" style="fill:#223a7a"/><path d="M485.76,93.38a8,8,0,0,1-2.21-6v-78a8,8,0,0,1,2.21-6,8.38,8.38,0,0,1,6.09-2.14h48.3a9.32,9.32,0,0,1,6,1.74,6,6,0,0,1,2.14,4.95A6.37,6.37,0,0,1,546.16,13a9.07,9.07,0,0,1-6,1.81H500.4v26h37.06a9.32,9.32,0,0,1,6,1.74,6.17,6.17,0,0,1,2.14,5.08,6,6,0,0,1-2.14,4.95,9.3,9.3,0,0,1-6,1.74H500.4V81.87h39.73a9.07,9.07,0,0,1,6,1.81,6.37,6.37,0,0,1,2.14,5.15,6,6,0,0,1-2.14,4.95,9.31,9.31,0,0,1-6,1.74h-48.3A8.37,8.37,0,0,1,485.76,93.38Z" style="fill:#223a7a"/><path d="M34.72,254.39a8.4,8.4,0,0,1-2.34-6.22V175.92H8q-8,0-8-7.09t8-7.09H74q8,0,8,7.09t-8,7.09H49.63v72.24a8.05,8.05,0,0,1-8.56,8.56A8.58,8.58,0,0,1,34.72,254.39Z" style="fill:#223a7a"/><path d="M178.46,249.24a6.65,6.65,0,0,1-2.47,5.22,8.44,8.44,0,0,1-5.69,2.14,7.41,7.41,0,0,1-7-4.68l-8-17.93H108.23l-8,17.93a7.59,7.59,0,0,1-2.94,3.55,7.86,7.86,0,0,1-4.15,1.14,8.51,8.51,0,0,1-5.62-2.14A6.58,6.58,0,0,1,85,249.24a8.25,8.25,0,0,1,.8-3.48l36.92-79.33a8.63,8.63,0,0,1,3.68-4.08,10.64,10.64,0,0,1,10.57,0,8.64,8.64,0,0,1,3.68,4.08l37.06,79.33A8.25,8.25,0,0,1,178.46,249.24Zm-64.35-28.63h35.32l-17.66-39.73Z" style="fill:#223a7a"/><path d="M321.94,160.94a9.4,9.4,0,0,1,6,2.14,6.59,6.59,0,0,1,2.68,5.35,8.63,8.63,0,0,1-.8,3.34l-37.06,79.73a8.75,8.75,0,0,1-3.68,3.95,10.64,10.64,0,0,1-10.57,0,8.74,8.74,0,0,1-3.68-3.95l-36.92-79.73a8.42,8.42,0,0,1-.8-3.21,6.66,6.66,0,0,1,2.74-5.49,9.85,9.85,0,0,1,6.22-2.14,8.2,8.2,0,0,1,4.21,1.14,7.56,7.56,0,0,1,3,3.41l30.77,68.36,30.77-68.36A7.31,7.31,0,0,1,321.94,160.94Z" style="fill:#223a7a"/><path d="M359.87,251.38a39.36,39.36,0,0,1-15.59-16.86q-5.49-11-5.49-25.69t5.42-25.62a38.93,38.93,0,0,1,15.59-16.79q10.17-5.88,23.95-5.89t23.88,5.89a39.06,39.06,0,0,1,15.52,16.79q5.42,10.91,5.42,25.62t-5.49,25.69a39.38,39.38,0,0,1-15.59,16.86q-10.1,5.89-23.75,5.89T359.87,251.38ZM404,234.52q7.29-9,7.29-25.69T404,183.21q-7.29-8.9-20.27-8.9t-20.4,8.9q-7.29,8.9-7.29,25.62t7.29,25.69q7.29,9,20.4,9T404,234.52Z" style="fill:#223a7a"/><path d="M448.3,254.45a8.63,8.63,0,0,1-2.34-6.29V169.64a8.05,8.05,0,0,1,8.56-8.56,8.59,8.59,0,0,1,6.35,2.34,8.42,8.42,0,0,1,2.34,6.22v78.53a8.64,8.64,0,0,1-2.34,6.29,8.45,8.45,0,0,1-6.35,2.41A8.28,8.28,0,0,1,448.3,254.45Z" style="fill:#223a7a"/><path d="M485.76,253.92a8,8,0,0,1-2.21-6v-78a8,8,0,0,1,2.21-6,8.38,8.38,0,0,1,6.09-2.14h48.3a9.32,9.32,0,0,1,6,1.74,6,6,0,0,1,2.14,4.95,6.37,6.37,0,0,1-2.14,5.15,9.07,9.07,0,0,1-6,1.81H500.4v26h37.06a9.32,9.32,0,0,1,6,1.74,6.17,6.17,0,0,1,2.14,5.08,6,6,0,0,1-2.14,4.95,9.3,9.3,0,0,1-6,1.74H500.4v27.56h39.73a9.07,9.07,0,0,1,6,1.81,6.37,6.37,0,0,1,2.14,5.15,6,6,0,0,1-2.14,4.95,9.31,9.31,0,0,1-6,1.74h-48.3A8.37,8.37,0,0,1,485.76,253.92Z" style="fill:#223a7a"/></g></g></svg>