<?xml version="1.0" encoding="iso-8859-1"?>
<!-- Generator: Adobe Illustrator 19.0.0, SVG Export Plug-In . SVG Version: 6.00 Build 0)  -->
<svg version="1.1" id="Capa_1" xmlns="http://www.w3.org/2000/svg" xmlns:xlink="http://www.w3.org/1999/xlink" x="0px" y="0px"
	 viewBox="0 0 512 512" style="enable-background:new 0 0 512 512;" xml:space="preserve">
<g>
	<g>
		<g>
			<path fill="#666666" d="M198.251,326.251c-8.341,8.341-8.341,21.824,0,30.165c4.16,4.16,9.621,6.251,15.083,6.251
				c5.461,0,10.923-2.091,15.083-6.251l85.312-85.312c1.984-1.984,3.541-4.331,4.629-6.955c2.155-5.205,2.155-11.093,0-16.299
				c-1.088-2.624-2.645-4.971-4.629-6.955l-85.312-85.312c-8.341-8.341-21.824-8.341-30.165,0c-8.341,8.341-8.341,21.824,0,30.165
				l48.917,48.917H21.333C9.536,234.667,0,244.224,0,256s9.536,21.333,21.333,21.333h225.835L198.251,326.251z"/>
			<path fill="#666666" d="M490.667,0h-384C94.869,0,85.333,9.557,85.333,21.333V192h67.883c-2.411-6.784-3.883-13.931-3.883-21.333
				c0-17.088,6.656-33.173,18.752-45.248c12.075-12.096,28.16-18.752,45.248-18.752c17.088,0,33.173,6.656,45.248,18.752
				l85.333,85.333c2.624,2.624,4.864,5.504,6.955,8.469c0.277,0.363,0.619,0.661,0.853,1.024c1.984,2.923,3.541,6.037,4.992,9.195
				c0.277,0.597,0.683,1.131,0.939,1.728c1.28,3.051,2.155,6.272,2.944,9.493c0.213,0.875,0.597,1.664,0.768,2.56
				c0.853,4.16,1.301,8.427,1.301,12.779s-0.448,8.619-1.301,12.779c-0.171,0.896-0.555,1.685-0.768,2.56
				c-0.789,3.221-1.664,6.443-2.944,9.493c-0.256,0.576-0.64,1.088-0.896,1.643c-1.451,3.2-3.051,6.336-5.035,9.28
				c-0.235,0.363-0.576,0.661-0.853,1.024c-2.091,2.965-4.331,5.845-6.955,8.469l-85.333,85.333
				c-12.075,12.096-28.16,18.752-45.248,18.752c-17.088,0-33.173-6.656-45.248-18.752c-12.096-12.075-18.752-28.16-18.752-45.248
				c0-7.403,1.472-14.549,3.883-21.333H85.333v21.333v149.333c0,11.776,9.536,21.333,21.333,21.333h384
				c11.797,0,21.333-9.557,21.333-21.333V21.333C512,9.557,502.464,0,490.667,0z"/>
		</g>
	</g>
</g>
<g>
</g>
<g>
</g>
<g>
</g>
<g>
</g>
<g>
</g>
<g>
</g>
<g>
</g>
<g>
</g>
<g>
</g>
<g>
</g>
<g>
</g>
<g>
</g>
<g>
</g>
<g>
</g>
<g>
</g>
</svg>
