<svg xmlns="http://www.w3.org/2000/svg" xmlns:xlink="http://www.w3.org/1999/xlink" width="48" height="50" viewBox="0 0 48 50">
    <defs>
        <path id="a" d="M0 0h37.175v50H0z"/>
        <path id="c" d="M.059.015h15.334V22H.059z"/>
    </defs>
    <g fill="none" fill-rule="evenodd">
        <g>
            <mask id="b" fill="#fff">
                <use xlink:href="#a"/>
            </mask>
            <path fill="#FF0060" d="M19.297.197c-.068.11-.468.2-.89.2-.423 0-.825.088-.891.198-.068.108-.387.198-.711.198-.34 0-.637.126-.702.297-.064.168-.359.298-.675.298-.309 0-.616.09-.684.199-.066.11-.294.198-.506.198-.211 0-.384.09-.384.198 0 .11-.173.199-.384.199-.211 0-.44.09-.507.199-.067.108-.295.197-.506.197-.211 0-.385.09-.385.2 0 .109-.116.198-.259.198-.142 0-.45.179-.685.396-.232.218-.523.397-.646.397-.122 0-.602.38-1.065.846-.464.465-1.166 1.067-1.56 1.337-.395.272-.823.692-.953.933-.13.243-.31.396-.402.337-.093-.057-.172.013-.176.156-.004.143-.404.702-.89 1.24-.486.539-.884 1.056-.884 1.15 0 .092-.178.36-.396.595-.218.234-.396.543-.396.686 0 .142-.09.26-.197.26-.11 0-.199.134-.199.298 0 .163-.089.298-.198.298-.108 0-.197.178-.197.396 0 .218-.086.396-.189.396-.104 0-.334.336-.512.744-.177.41-.403.9-.503 1.09-.1.189-.182.524-.182.744 0 .219-.089.399-.198.399-.108 0-.197.267-.197.595 0 .327-.08.595-.177.595-.18 0-.347.837-.544 2.729-.06.572-.189 1.041-.287 1.041C.077 20.634 0 22.52 0 25c0 2.777.071 4.364.197 4.364.11 0 .199.446.199.993 0 .545.089.992.198.992.108 0 .198.245.2.545.003.563.414 1.922.654 2.163.075.074.135.282.135.46 0 .443.981 2.388 1.205 2.388.1 0 .181.178.181.396 0 .218.09.396.197.396.11 0 .198.19.198.424 0 .232.157.568.348.744.192.176.474.567.627.867.154.3.354.545.444.545.09 0 .164.133.164.298 0 .163.09.297.199.297.109 0 .198.103.198.227 0 .215 3.465 3.741 3.676 3.741.109 0 .437.261 1.132.893.24.22.682.524.981.679.3.154.544.356.544.446 0 .09.173.166.383.166.212 0 .44.089.508.197.067.11.295.199.507.199.21 0 .383.09.383.199 0 .108.178.197.396.197.218 0 .396.083.396.184 0 .1.266.24.592.313.325.071.642.212.704.313.062.1.375.183.694.183.321 0 .582.09.582.198 0 .11.307.199.682.199.374 0 .736.089.803.199.067.108.513.197.99.197.476 0 .922.09.99.199.067.11.762.199 1.545.199h1.423V39.087H22.03c-.674 0-1.28-.09-1.348-.2-.067-.107-.429-.197-.803-.197-.375 0-.682-.089-.682-.199 0-.11-.178-.198-.395-.198-.217 0-.396-.09-.396-.198 0-.11-.178-.199-.396-.199-.217 0-.396-.09-.396-.199 0-.108-.181-.197-.402-.197-.42 0-.533-.088-2.449-1.882-.642-.602-1.205-1.094-1.25-1.094-.208 0-.649-.6-.649-.879 0-.171-.089-.312-.198-.312-.108 0-.197-.127-.197-.28 0-.156-.068-.313-.148-.348-.214-.096-1.04-1.739-1.04-2.07 0-.153-.07-.278-.155-.278-.184 0-.624-1.45-.684-2.256-.024-.313-.156-.613-.295-.667-.33-.127-.362-4.745-.033-4.856.121-.04.264-.471.317-.96.054-.486.177-.97.276-1.073.098-.104.178-.438.178-.744s.089-.556.198-.556c.11 0 .198-.179.198-.396 0-.218.09-.397.198-.397.109 0 .198-.178.198-.397 0-.218.089-.397.198-.397.108 0 .197-.134.197-.298 0-.164.09-.297.199-.297.109 0 .198-.097.198-.214 0-.43 2.225-2.937 2.622-2.954.08-.004.479-.319.882-.701.404-.382.854-.694 1.001-.694.148 0 .213-.09.145-.199-.066-.11.056-.199.275-.199.217 0 .45-.09.517-.197.068-.11.296-.2.507-.2.21 0 .384-.089.384-.198 0-.108.217-.198.483-.198s.538-.089.606-.199c.066-.109.607-.198 1.2-.198.59 0 1.075-.09 1.075-.198 0-.112.557-.199 1.275-.199.701 0 1.33.09 1.397.199.068.108.563.198 1.1.198.539 0 .978.089.978.198 0 .11.267.2.594.2.326 0 .594.089.594.197 0 .11.178.199.396.199.218 0 .396.089.396.199 0 .108.168.197.375.197.205 0 .425.135.488.298.063.164.237.297.387.297.15 0 .553.268.895.596.68.65.823.714.823.365 0-.127.253-.64.563-1.142 2.223-3.596 3.725-5.992 4.212-6.719.708-1.056.712-1.332.025-1.772a6.795 6.795 0 0 1-.806-.6c-.144-.138-.477-.305-.742-.372-.264-.066-.481-.2-.481-.297 0-.098-.178-.178-.396-.178-.217 0-.395-.089-.395-.197 0-.11-.178-.2-.397-.2-.217 0-.395-.088-.395-.198 0-.108-.267-.198-.594-.198-.326 0-.594-.089-.594-.198 0-.11-.215-.2-.478-.2s-.51-.093-.548-.207c-.08-.241-1.257-.584-2.486-.727C27.889.4 27.51.276 27.51.178c0-.25-8.059-.232-8.213.02" mask="url(#b)"/>
        </g>
        <path fill="#7533FF" d="M36.972 26.15c-.379.172-.525 1.415-.165 1.415.14 0 .058.137-.183.306a1.04 1.04 0 0 0-.436.875c0 .313-.089.623-.197.69-.108.067-.196.294-.196.504 0 .21-.089.382-.197.382-.109 0-.197.177-.197.394 0 .217-.089.394-.196.394-.108 0-.197.178-.197.394 0 .216-.088.394-.197.394-.107 0-.196.112-.196.248 0 .25-.91 1.379-2.113 2.623-.352.363-.64.609-.64.544 0-.064-.293.206-.652.598-.36.392-.808.714-.996.714-.254 0-.31.103-.219.394.09.284.036.394-.194.394-.176 0-.266-.089-.198-.197.066-.108.027-.197-.088-.197-.114 0-.207.09-.207.197 0 .108-.222.197-.492.197s-.492.089-.492.197c0 .108-.22.197-.487.197-.36 0-.521.133-.615.504-.083.336-.221.467-.412.394-.159-.06-.33-.11-.38-.11-.052 0-.034-.097.039-.216.082-.134-.006-.19-.235-.146-.202.04-.394.264-.428.501-.05.345-.236.458-.934.563l-.872.131V48.837l1.13.003c.622.001 1.33.055 1.572.122.316.083.443.033.443-.179 0-.405.51-.57 1.304-.42.428.08.662.047.662-.095 0-.375 1.14-.26 1.24.126.055.21.1.13.113-.203.014-.334.156-.59.366-.658.451-.144 1.241-.47 1.67-.688.187-.096.475-.175.637-.175.164 0 .299-.078.299-.174 0-.095.154-.229.343-.297 1.852-.668 7.127-4.853 7.127-5.654 0-.198.522-.872 1.032-1.333.188-.17.344-.407.344-.525 0-.118.156-.386.346-.597.325-.36 1.844-3.325 2.086-4.075.06-.189.208-.345.327-.345.123 0 .165-.16.098-.372-.069-.217.012-.505.193-.685.171-.172.296-.425.277-.563-.072-.55.031-.743.396-.743.485 0 .693-.317.305-.466-.519-.2-.37-1.244.198-1.387.27-.069.492-.26.492-.427 0-.168-.086-.25-.191-.186-.264.164-.438-.644-.363-1.686.042-.596.145-.853.323-.817.143.03.204-.036.135-.147-.14-.227-9.435-.265-9.932-.04"/>
        <g transform="translate(32 4)">
            <mask id="d" fill="#fff">
                <use xlink:href="#c"/>
            </mask>
            <path fill="#00CFFF" d="M5.476.204c0 .108-.262.585-.582 1.06-.497.738-2.034 3.175-4.307 6.832-.759 1.22-.732 1.451.284 2.468.474.473 1.088 1.197 1.367 1.608.279.41.574.747.658.748.083 0 .151.183.151.404 0 .222.092.403.203.403.11 0 .202.182.202.404 0 .222.09.404.203.404.111 0 .202.221.202.492s.091.549.202.618c.112.067.203.437.203.818 0 .382.09.695.203.695.11 0 .201.403.201.896 0 .492.091.951.203 1.02.112.069.203.755.203 1.525V22h10.321v-3.228c0-2.018-.076-3.228-.203-3.228-.111 0-.202-.499-.202-1.109s-.092-1.11-.202-1.11c-.112 0-.203-.312-.203-.694 0-.382-.073-.74-.163-.795-.088-.054-.29-.569-.446-1.144-.157-.574-.404-1.09-.547-1.144-.143-.054-.26-.271-.26-.482 0-.209-.092-.38-.202-.38-.112 0-.203-.182-.203-.405 0-.222-.091-.403-.203-.403-.11 0-.202-.227-.202-.505 0-.277-.09-.504-.202-.504-.112 0-.203-.136-.203-.302 0-.167-.091-.303-.202-.303-.111 0-.203-.137-.203-.303 0-.167-.085-.302-.188-.302-.104 0-.244-.17-.31-.38-.16-.505-.807-1.235-1.093-1.235-.127 0-.23-.092-.23-.205 0-.251-2.96-3.224-3.21-3.224-.099 0-.294-.137-.433-.303-.285-.343-.607-.4-.607-.107" mask="url(#d)"/>
        </g>
    </g>
</svg>
