<?xml version="1.0" standalone="no"?>
<!DOCTYPE svg PUBLIC "-//W3C//DTD SVG 20010904//EN"
 "http://www.w3.org/TR/2001/REC-SVG-20010904/DTD/svg10.dtd">
<svg version="1.0" xmlns="http://www.w3.org/2000/svg"
 width="423.000000pt" height="423.000000pt" viewBox="0 0 423.000000 423.000000"
 preserveAspectRatio="xMidYMid meet">
<metadata>
Created by potrace 1.11, written by Peter Selinger 2001-2013
</metadata>
<g transform="translate(0.000000,423.000000) scale(0.100000,-0.100000)"
fill="#000000" stroke="none">
<path d="M1949 4226 c-2 -2 -36 -7 -76 -10 -497 -46 -1016 -321 -1353 -717
-30 -35 -57 -66 -60 -69 -40 -40 -163 -230 -219 -340 -104 -202 -164 -382
-205 -610 -50 -278 -39 -609 30 -875 9 -33 17 -67 19 -75 13 -58 86 -246 138
-350 208 -421 536 -747 962 -955 219 -107 420 -169 655 -200 120 -16 348 -22
442 -11 24 3 68 8 99 11 31 3 67 8 80 10 13 3 40 8 59 11 87 15 275 67 335 93
11 5 36 15 55 22 68 24 286 139 368 193 132 87 208 151 332 275 315 315 506
683 585 1129 40 219 39 525 -2 737 -8 44 -17 91 -19 105 -3 14 -9 39 -14 55
-6 17 -19 61 -30 99 -66 225 -209 496 -364 691 -98 123 -312 313 -483 429
-111 74 -361 206 -393 206 -9 0 -20 4 -25 9 -16 14 -219 76 -320 97 -123 26
-229 36 -396 40 -108 2 -198 2 -200 0z m1501 -779 c0 -2 -10 -12 -22 -23 l-23
-19 19 23 c18 21 26 27 26 19z m-110 -110 c0 -2 -10 -12 -22 -23 l-23 -19 19
23 c18 21 26 27 26 19z m-80 -80 c0 -2 -10 -12 -22 -23 l-23 -19 19 23 c18 21
26 27 26 19z m-130 -130 c0 -2 -10 -12 -22 -23 l-23 -19 19 23 c18 21 26 27
26 19z m-819 -81 c167 -39 327 -122 442 -230 16 -14 33 -24 38 -21 5 4 9 2 9
-3 0 -5 9 -20 21 -33 72 -84 100 -123 137 -191 29 -54 79 -181 88 -223 27
-131 34 -273 19 -368 -62 -390 -334 -695 -710 -795 -65 -17 -190 -35 -240 -34
-247 4 -493 105 -666 274 -256 250 -352 613 -253 954 106 369 422 635 814 687
58 7 240 -2 301 -17z m709 -29 c0 -2 -10 -12 -22 -23 l-23 -19 19 23 c18 21
26 27 26 19z m-50 -51 c0 -2 -8 -10 -17 -17 -16 -13 -17 -12 -4 4 13 16 21 21
21 13z m-40 -39 c0 -2 -10 -12 -22 -23 l-23 -19 19 23 c18 21 26 27 26 19z
m-80 -80 c0 -2 -10 -12 -22 -23 l-23 -19 19 23 c18 21 26 27 26 19z"/>
</g>
</svg>
