<?xml version="1.0" encoding="utf-8"?>
<!-- Generator: Adobe Illustrator 18.0.0, SVG Export Plug-In . SVG Version: 6.00 Build 0)  -->
<!DOCTYPE svg PUBLIC "-//W3C//DTD SVG 1.1//EN" "http://www.w3.org/Graphics/SVG/1.1/DTD/svg11.dtd">
<svg version="1.1" id="Calque_1" xmlns="http://www.w3.org/2000/svg" xmlns:xlink="http://www.w3.org/1999/xlink" x="0px" y="0px"
	 viewBox="0 0 93 76.7" enable-background="new 0 0 93 76.7" xml:space="preserve">
<g>
	<path fill="#308729" d="M42.1,16.6c-0.2-2.2,0.4-4.3,1.8-5.9c1.4-1.7,3.3-2.7,5.4-3l0.2,2c-1.6,0.2-3.1,1-4.1,2.2
		c-1,1.3-1.5,2.9-1.3,4.5L42.1,16.6z"/>
	<path fill="#308729" d="M52.1,25.8c-0.3,0-0.5-0.3-0.3-0.5l0.2-0.2c-0.3,0.1-0.5,0.1-0.8,0.1c-5.3,0.6-10-3.3-10.5-8.5
		c-0.3-2.5,0.5-5,2.1-7c1.6-2,3.9-3.2,6.4-3.5c0.3,0,0.7-0.1,1-0.1c4.9,0,9,3.7,9.5,8.6c0,0.3,0,0.5,0,0.8l0.8-1
		c0.1-0.1,0.2-0.1,0.3-0.1l0.8,0.2c0,0,0,0,0,0c-0.7-6.3-6.3-11-12.7-10.3c-3.1,0.3-5.8,1.8-7.8,4.2c-1.9,2.4-2.8,5.4-2.5,8.5
		c0.6,5.9,5.6,10.3,11.5,10.3c0.4,0,0.8,0,1.2-0.1c1.9-0.2,3.7-0.9,5.2-1.9L52.1,25.8z"/>
	<path fill="#308729" d="M52,26.8c-0.5,0-1-0.3-1.2-0.8c-0.2-0.5-0.2-1,0.2-1.4l8.7-10.8c0.2-0.3,0.6-0.5,1-0.5l0.3,0l28.1,7
		c0.6,0.2,1,0.7,1,1.4s-0.5,1.2-1.2,1.2L52,26.8z M61,15.4l-7.4,9.2L85,21.3L61,15.4z"/>
	<path fill="#308729" d="M61,32.2L61,32.2c-0.2,0-0.4-0.1-0.6-0.2l-8.7-4.8c-0.5-0.3-0.8-0.9-0.7-1.4c0.1-0.6,0.6-1,1.2-1.1L78.8,22
		c0.6,0,1.2,0.4,1.3,1.1c0.1,0.6-0.2,1.2-0.8,1.5l-17.8,7.6C61.4,32.2,61.2,32.2,61,32.2z M54.6,26.6l6.5,3.6l13.3-5.7L54.6,26.6z"
		/>
	<path fill="#308729" d="M35.1,61.2c-16-0.2-28.4-5.6-33-8.1C2,53.1,2,53.1,2,53c0-0.1,0-0.1,0.1-0.2l6.5-3.7
		c-0.7-0.4-1.4-0.8-2-1.1l-5.5,3.1c-0.7,0.4-1.1,1.2-1.1,2c0,0.8,0.5,1.4,1.2,1.8c4.1,2.2,14.3,6.6,27.6,7.9L35.1,61.2z"/>
	<g>
		<path fill="#308729" d="M42.8,35c2.2-0.1,4-0.2,5.2-0.2l0.7,0c0.1,0,0.3,0,0.4,0.1l1.1,1c-0.4-1-0.8-2.1-1.3-3.1c0,0-0.1,0-0.1,0
			c-0.2,0-0.5,0-0.8,0c-2.2,0-6.3,0.1-11.5,0.7c0.3,0.1,0.6,0.1,0.9,0.2C39.4,34.1,41.1,34.5,42.8,35z"/>
		<g>
			<path fill="#308729" d="M61.8,54.2c1.1-2,2-4.3,2.5-7c0.1-0.8-0.1-1.5-0.6-2c-0.1,0.7-0.2,1.1-0.2,1.1s-0.1,0-0.2,0
				c0,0.1,0,0.3-0.1,0.4c-0.4,0.8-0.9,1.3-1.3,2c-0.7,2.5-1.7,4.6-3,6.2L61.8,54.2z"/>
			<path fill="#308729" d="M40.4,59.8C26.5,57.8,10.4,49,5.3,46C5.1,45.8,5,45.7,5,45.6c0-0.1,0-0.3,0.3-0.5
				c5.7-3.3,11.8-5.5,17.7-7.1c-0.5-0.6-0.9-1.2-1.3-1.7C16,37.9,9.9,40.2,4.3,43.4c-0.8,0.5-1.3,1.3-1.3,2.2c0,0.9,0.5,1.6,1.3,2
				c5.9,3.5,19,10.5,31.5,13.3L40.4,59.8z"/>
		</g>
	</g>
	<path fill="#308729" d="M61.9,30.8l-0.1-0.3l-10.1-5.6L43,23.6l1,1.8c0,0.1,4,7.1,5.7,12.1c0.8,0.4,1.6,0.7,2.4,1.1
		c-1-3.9-3.8-9.6-5.4-12.4l4.2,0.6l9.3,5.1c3,5.5,2.6,11.1,2.3,13.3c-0.1,0-0.3,0-0.5-0.1c0.4,0.4,0.7,0.7,0.9,0.9
		c0.2,0.2,0.2,0.5,0.1,0.8c-0.1,0.2-0.2,0.3-0.3,0.5c0.2,0,0.3,0,0.4,0.1l0.9,0.1l0.2-0.9C64.5,46.3,66.2,38.5,61.9,30.8z"/>
	<path fill="#308729" d="M49.1,58L49.1,58c-13.7,0-27.4-19.6-31.3-25.6c-0.3-0.5-0.3-1.1-0.1-1.6c0.3-0.5,0.8-0.8,1.4-0.8
		c1.9,0.1,6.7,0.5,18.5,2.8c15.5,3,24.5,11,26.1,12.6c0.5,0.5,0.7,1.3,0.3,2C60,54.4,55,58,49.1,58z M19.9,32
		c3.5,5.3,16.7,24,29.2,24h0c5,0,9.4-3.2,13.1-9.4c-2-1.9-10.5-9.1-24.9-11.9C27,32.7,22.1,32.1,19.9,32z"/>
	<g>
		<path fill="#308729" d="M80.9,48.3c0.8,0,1.6,0.2,2.3,0.4l-0.3-1l-2.3,0.6C80.7,48.3,80.8,48.3,80.9,48.3z"/>
		<path fill="#308729" d="M77.9,49L14.8,65.4l0.5,1.9l59.8-15.6C75.7,50.6,76.7,49.6,77.9,49z"/>
	</g>
	<path fill="#308729" d="M80.9,62.3c-4.1,0-7.5-3.4-7.5-7.5s3.4-7.5,7.5-7.5s7.5,3.4,7.5,7.5S85,62.3,80.9,62.3z M80.9,49.3
		c-3,0-5.5,2.5-5.5,5.5s2.5,5.5,5.5,5.5s5.5-2.5,5.5-5.5S83.9,49.3,80.9,49.3z"/>
	<path fill="#308729" d="M72.7,49.1c-1.8,0-3.3-1.5-3.3-3.3s1.5-3.3,3.3-3.3S76,44,76,45.8S74.6,49.1,72.7,49.1z M72.7,44.6
		c-0.7,0-1.3,0.6-1.3,1.3s0.6,1.3,1.3,1.3s1.3-0.6,1.3-1.3S73.4,44.6,72.7,44.6z"/>
	<path fill="#308729" d="M89.7,49.1c-1.8,0-3.3-1.5-3.3-3.3s1.5-3.3,3.3-3.3S93,44,93,45.8S91.5,49.1,89.7,49.1z M89.7,44.6
		c-0.7,0-1.3,0.6-1.3,1.3s0.6,1.3,1.3,1.3s1.3-0.6,1.3-1.3S90.4,44.6,89.7,44.6z"/>
	<path fill="#308729" d="M81.2,45.9c-1.8,0-3.3-1.5-3.3-3.3s1.5-3.3,3.3-3.3s3.3,1.5,3.3,3.3S83,45.9,81.2,45.9z M81.2,41.4
		c-0.7,0-1.3,0.6-1.3,1.3c0,0.7,0.6,1.3,1.3,1.3s1.3-0.6,1.3-1.3C82.5,42,81.9,41.4,81.2,41.4z"/>
	<path fill="#308729" d="M63.3,73.7c-2.4,0-4.4-2-4.4-4.4s2-4.4,4.4-4.4c2.4,0,4.4,2,4.4,4.4S65.7,73.7,63.3,73.7z M63.3,67
		C62,67,61,68,61,69.3s1.1,2.4,2.4,2.4c1.3,0,2.4-1.1,2.4-2.4S64.6,67,63.3,67z"/>
	<g>
		<circle fill="#308729" cx="59.1" cy="64.7" r="1.2"/>
		<circle fill="#308729" cx="67.9" cy="64.7" r="1.2"/>
		<circle fill="#308729" cx="63.5" cy="63.1" r="1.2"/>
	</g>
	<path fill="#308729" d="M24.2,26.8c-2.9,0-5.2-2.4-5.2-5.2c0-2.9,2.4-5.2,5.2-5.2s5.2,2.4,5.2,5.2C29.5,24.5,27.1,26.8,24.2,26.8z
		 M24.2,18.3c-1.8,0-3.2,1.5-3.2,3.2s1.5,3.2,3.2,3.2s3.2-1.5,3.2-3.2S26,18.3,24.2,18.3z"/>
	<g>
		<circle fill="#308729" cx="18.9" cy="15.8" r="1.5"/>
		<circle fill="#308729" cx="30" cy="15.8" r="1.5"/>
		<circle fill="#308729" cx="24.4" cy="13.7" r="1.5"/>
	</g>
	<path fill="#308729" d="M44.6,53.4c-5.7-1.9-15-11.9-15.4-12.3l1.5-1.4c0.1,0.1,9.4,10,14.6,11.8L44.6,53.4z"/>
	<rect x="9.8" y="48.1" transform="matrix(0.9069 0.4213 -0.4213 0.9069 22.197 -2.2871)" fill="#308729" width="12.9" height="2"/>
	<rect x="24.3" y="52.6" transform="matrix(0.9385 0.3452 -0.3452 0.9385 20.1327 -5.834)" fill="#308729" width="4.3" height="2"/>
	<g>
		<rect x="33.2" y="23.6" fill="#308729" width="1.6" height="5.1"/>
		<rect x="31.4" y="25.3" fill="#308729" width="5.1" height="1.6"/>
	</g>
	<g>
		<rect x="24.7" y="68.3" fill="#308729" width="1.6" height="5.1"/>
		<rect x="22.9" y="70" fill="#308729" width="5.1" height="1.6"/>
	</g>
	<g>
		<rect x="31" y="73.8" fill="#308729" width="0.9" height="2.8"/>
		<rect x="30" y="74.8" fill="#308729" width="2.8" height="0.9"/>
	</g>
	<g>
		<rect x="78.7" y="34.3" fill="#308729" width="0.9" height="2.8"/>
		<rect x="77.8" y="35.2" fill="#308729" width="2.8" height="0.9"/>
	</g>
	<g>
		<rect x="73" y="0" fill="#308729" width="1.6" height="5.1"/>
		<rect x="71.2" y="1.7" fill="#308729" width="5.1" height="1.6"/>
	</g>
	<rect x="78.1" y="10.1" fill="#308729" width="2.2" height="2.2"/>
	<rect x="67.1" y="4.4" fill="#308729" width="1.5" height="1.5"/>
	<rect x="35.8" y="18.6" fill="#308729" width="1.5" height="1.5"/>
	<rect x="5.3" y="32.3" fill="#308729" width="1.5" height="1.5"/>
	<rect x="72" y="69.2" fill="#308729" width="1.5" height="1.5"/>
</g>
</svg>
