<?xml version="1.0" encoding="utf-8"?>
<!-- Generator: Adobe Illustrator 18.0.0, SVG Export Plug-In . SVG Version: 6.00 Build 0)  -->
<!DOCTYPE svg PUBLIC "-//W3C//DTD SVG 1.1//EN" "http://www.w3.org/Graphics/SVG/1.1/DTD/svg11.dtd">
<svg version="1.1" id="Calque_1" xmlns="http://www.w3.org/2000/svg" xmlns:xlink="http://www.w3.org/1999/xlink" x="0px" y="0px"
	 viewBox="0 0 457.1 76.9" enable-background="new 0 0 457.1 76.9" xml:space="preserve">
<g>
	<path fill="#003189" d="M1.9,60C0.6,58.7,0,56.9,0,54.5v-47c0-2.4,0.6-4.2,1.9-5.5C3.2,0.6,5.1,0,7.5,0h17.8
		C32.1,0,38,1.2,42.9,3.7c4.9,2.5,8.7,6,11.4,10.7c2.6,4.6,4,10.1,4,16.5c0,6.4-1.3,12-3.9,16.7C51.7,52.2,48,55.8,43,58.3
		c-5,2.5-10.9,3.7-17.8,3.7H7.5C5.1,61.9,3.2,61.3,1.9,60z M24.1,48.9c6,0,10.6-1.5,13.6-4.4c3-3,4.5-7.5,4.5-13.6
		s-1.5-10.6-4.5-13.5c-3-2.9-7.5-4.4-13.6-4.4h-7.9v35.9H24.1z"/>
	<path fill="#003189" d="M66,12.3c-1.5-1.3-2.2-3-2.2-5.2s0.7-3.8,2.2-5.1s3.4-1.9,5.9-1.9c2.4,0,4.4,0.6,5.9,1.9
		C79.2,3.3,80,5,80,7.2s-0.7,3.9-2.2,5.2c-1.5,1.3-3.4,1.9-5.9,1.9C69.4,14.3,67.4,13.6,66,12.3z M66.6,60.2
		c-1.4-1.1-2.1-2.8-2.1-5.1V26.8c0-2.3,0.7-3.9,2.1-5.1c1.4-1.1,3.1-1.7,5.2-1.7c2.1,0,3.8,0.6,5.2,1.7c1.4,1.1,2.1,2.8,2.1,5.1
		v28.4c0,2.3-0.7,3.9-2.1,5.1c-1.4,1.1-3.1,1.7-5.2,1.7C69.8,61.9,68,61.4,66.6,60.2z"/>
	<path fill="#003189" d="M120.5,24.4c3,3,4.5,7.5,4.5,13.6v17.2c0,2.1-0.6,3.7-1.9,4.9c-1.2,1.2-3,1.8-5.2,1.8
		c-1.9,0-3.5-0.5-4.7-1.6c-1.2-1.1-1.9-2.6-2-4.5c-0.8,2-2.1,3.5-3.9,4.6c-1.8,1.1-4,1.6-6.5,1.6c-2.8,0-5.3-0.6-7.6-1.7
		c-2.3-1.1-4-2.7-5.3-4.7c-1.3-2-1.9-4.3-1.9-6.8c0-2.9,0.8-5.2,2.3-7c1.5-1.7,3.9-3,7.2-3.8c3.3-0.8,7.8-1.2,13.4-1.2h2.2v-1
		c0-1.9-0.4-3.3-1.3-4.2c-0.9-0.8-2.4-1.3-4.5-1.3c-2.3,0-5.6,0.8-9.9,2.3c-1.3,0.4-2.3,0.7-3.2,0.7c-1.4,0-2.5-0.5-3.3-1.5
		c-0.8-1-1.2-2.3-1.2-3.9c0-1.2,0.2-2.2,0.7-3c0.5-0.8,1.3-1.5,2.4-2.1c1.9-1,4.3-1.8,7.3-2.4c2.9-0.6,5.8-0.9,8.6-0.9
		C112.9,19.9,117.5,21.4,120.5,24.4z M109.1,50.2c1.3-1.4,1.9-3.2,1.9-5.4v-1h-1.3c-3.5,0-6,0.3-7.5,0.9c-1.5,0.6-2.2,1.7-2.2,3.2
		c0,1.3,0.4,2.3,1.2,3.1c0.8,0.8,1.8,1.2,3.1,1.2C106.3,52.3,107.9,51.6,109.1,50.2z"/>
	<path fill="#003189" d="M174.5,21.9c1.3,1.2,2,2.9,2,4.9v29.7c0,6.7-2,11.8-6.1,15.3c-4,3.5-10,5.2-17.8,5.2c-3,0-5.9-0.3-8.6-0.8
		c-2.7-0.6-5-1.3-6.8-2.4c-1-0.6-1.8-1.3-2.3-2.1c-0.6-0.9-0.9-1.9-0.9-3c0-1.6,0.4-2.9,1.2-3.9c0.8-1,1.8-1.5,3.1-1.5
		c1,0,2.8,0.4,5.4,1.2c1.7,0.5,3.2,1,4.5,1.3c1.3,0.3,2.7,0.5,4,0.5c3.4,0,5.8-0.7,7.4-2.1c1.6-1.4,2.3-3.6,2.3-6.6v-3.1
		c-1.2,1.8-2.9,3.3-5.2,4.3c-2.3,1.1-4.7,1.6-7.3,1.6c-3.5,0-6.7-0.8-9.4-2.5c-2.7-1.6-4.9-4-6.4-7c-1.5-3.1-2.3-6.6-2.3-10.6
		s0.8-7.6,2.3-10.6c1.5-3.1,3.7-5.5,6.4-7.1c2.7-1.7,5.9-2.5,9.4-2.5c2.7,0,5.2,0.6,7.4,1.7c2.3,1.1,4,2.6,5.2,4.5
		c0.1-1.9,0.8-3.3,2.1-4.4c1.3-1.1,3-1.6,5.1-1.6C171.4,20,173.2,20.7,174.5,21.9z M159.9,46.9c1.4-1.6,2.1-3.8,2.1-6.8
		c0-2.9-0.7-5.2-2.1-6.8c-1.4-1.6-3.4-2.5-6-2.5c-2.5,0-4.5,0.8-5.9,2.4c-1.4,1.6-2.1,3.9-2.1,6.9c0,2.9,0.7,5.1,2.2,6.7
		c1.5,1.6,3.4,2.4,5.9,2.4C156.5,49.3,158.5,48.5,159.9,46.9z"/>
	<path fill="#003189" d="M264.7,21.3c1.1,1,1.6,2.5,1.6,4.5c0,2.2-0.5,3.8-1.5,4.8c-1,1-2.8,1.6-5.5,1.9l-2.5,0.2
		c-2.7,0.3-4.7,1.2-5.9,2.6c-1.2,1.4-1.8,3.3-1.8,5.7v14.1c0,2.3-0.7,3.9-2.1,5.1c-1.4,1.1-3.1,1.7-5.2,1.7c-2.1,0-3.8-0.6-5.2-1.7
		c-1.4-1.1-2.1-2.8-2.1-5.1V26.6c0-2.1,0.7-3.7,2.1-4.9c1.4-1.2,3.1-1.7,5.1-1.7c2,0,3.7,0.6,4.9,1.7c1.2,1.1,1.9,2.6,1.9,4.6v1.6
		c0.9-2.4,2.3-4.3,4.3-5.6c2-1.3,4.1-2,6.3-2.1l1.2-0.1C262.1,19.9,263.6,20.3,264.7,21.3z"/>
	<path fill="#003189" d="M270.5,12.3c-1.5-1.3-2.2-3-2.2-5.2s0.7-3.8,2.2-5.1c1.5-1.3,3.4-1.9,5.9-1.9c2.4,0,4.4,0.6,5.9,1.9
		c1.5,1.3,2.2,3,2.2,5.1s-0.7,3.9-2.2,5.2c-1.5,1.3-3.4,1.9-5.9,1.9C273.9,14.3,272,13.6,270.5,12.3z M271.2,60.2
		c-1.4-1.1-2.1-2.8-2.1-5.1V26.8c0-2.3,0.7-3.9,2.1-5.1c1.4-1.1,3.1-1.7,5.2-1.7c2.1,0,3.8,0.6,5.2,1.7c1.4,1.1,2.1,2.8,2.1,5.1
		v28.4c0,2.3-0.7,3.9-2.1,5.1c-1.4,1.1-3.1,1.7-5.2,1.7C274.3,61.9,272.6,61.4,271.2,60.2z"/>
	<path fill="#003189" d="M328.3,49.9c0.8,1,1.2,2.3,1.2,3.9c0,2.2-1.1,3.9-3.2,5c-1.9,0.9-4.1,1.7-6.6,2.3c-2.6,0.6-4.9,0.9-7,0.9
		c-4.5,0-8.4-0.9-11.8-2.6c-3.4-1.7-5.9-4.1-7.8-7.3c-1.8-3.2-2.7-6.9-2.7-11.2c0-4.1,0.9-7.7,2.6-10.9c1.7-3.2,4.1-5.7,7.3-7.5
		c3.1-1.8,6.6-2.7,10.5-2.7c3.8,0,7.1,0.8,10,2.5c2.9,1.6,5.1,4,6.6,7c1.6,3,2.4,6.6,2.4,10.6c0,1.3-0.3,2.2-0.9,2.9
		c-0.6,0.7-1.4,1-2.5,1h-21.8c0.4,2.6,1.2,4.5,2.6,5.7c1.3,1.2,3.3,1.7,5.9,1.7c1.4,0,2.6-0.2,3.8-0.5c1.2-0.3,2.4-0.7,3.9-1.3
		c0.8-0.3,1.6-0.6,2.4-0.9c0.8-0.2,1.5-0.4,2.2-0.4C326.5,48.4,327.5,48.9,328.3,49.9z M306.5,31.6c-1.2,1.2-1.8,3-2.1,5.4h12.9
		c-0.3-4.8-2.4-7.3-6.3-7.3C309.2,29.8,307.7,30.4,306.5,31.6z"/>
	<path fill="#003189" d="M374.4,24.2c2.4,2.9,3.5,7.3,3.5,13.1v17.8c0,2.1-0.7,3.7-2,4.9c-1.3,1.2-3.1,1.8-5.4,1.8s-4-0.6-5.4-1.8
		c-1.3-1.2-2-2.9-2-4.9V38c0-2.4-0.4-4.2-1.3-5.3c-0.9-1.1-2.1-1.6-3.8-1.6c-2.2,0-3.9,0.7-5.2,2.1c-1.3,1.4-1.9,3.3-1.9,5.6v16.3
		c0,2.1-0.7,3.7-2,4.9c-1.3,1.2-3.1,1.8-5.4,1.8c-2.3,0-4-0.6-5.4-1.8c-1.3-1.2-2-2.9-2-4.9V26.6c0-1.9,0.7-3.5,2.1-4.7
		c1.4-1.2,3.2-1.9,5.4-1.9c2.1,0,3.8,0.6,5,1.7c1.2,1.2,1.9,2.7,1.9,4.5c1.4-2.1,3.3-3.7,5.5-4.8c2.3-1.1,4.8-1.7,7.5-1.7
		C368.5,19.9,372.1,21.3,374.4,24.2z"/>
	<path fill="#003189" d="M415.8,56.4c0,1.9-0.7,3.4-2.2,4.3c-1.5,0.9-3.6,1.3-6.3,1.2l-2.3-0.2c-4.9-0.4-8.7-1.9-11.3-4.5
		c-2.6-2.6-3.8-6.3-3.8-10.9V31.7h-2.4c-4.4,0-6.6-1.8-6.6-5.4c0-3.6,2.2-5.4,6.6-5.4h2.4v-5.4c0-2.1,0.7-3.8,2-5
		c1.3-1.2,3.1-1.9,5.4-1.9c2.3,0,4,0.6,5.4,1.9c1.3,1.2,2,2.9,2,5v5.4h4.5c4.4,0,6.6,1.8,6.6,5.4c0,3.6-2.2,5.4-6.6,5.4h-4.5v15.8
		c0,1,0.3,1.9,0.9,2.6c0.6,0.7,1.4,1.1,2.4,1.2l2.4,0.2C413.9,51.7,415.8,53.3,415.8,56.4z"/>
	<path fill="#003189" d="M455.7,49.9c0.8,1,1.2,2.3,1.2,3.9c0,2.2-1.1,3.9-3.2,5c-1.9,0.9-4.1,1.7-6.6,2.3s-4.9,0.9-7,0.9
		c-4.5,0-8.4-0.9-11.8-2.6c-3.4-1.7-5.9-4.1-7.7-7.3c-1.8-3.2-2.7-6.9-2.7-11.2c0-4.1,0.9-7.7,2.6-10.9c1.7-3.2,4.2-5.7,7.3-7.5
		c3.1-1.8,6.6-2.7,10.5-2.7c3.8,0,7.1,0.8,10,2.5c2.9,1.6,5.1,4,6.6,7c1.6,3,2.4,6.6,2.4,10.6c0,1.3-0.3,2.2-0.9,2.9
		c-0.6,0.7-1.4,1-2.5,1h-21.8c0.4,2.6,1.2,4.5,2.6,5.7c1.3,1.2,3.3,1.7,5.9,1.7c1.4,0,2.6-0.2,3.8-0.5s2.4-0.7,3.9-1.3
		c0.8-0.3,1.6-0.6,2.4-0.9s1.5-0.4,2.2-0.4C453.9,48.4,454.9,48.9,455.7,49.9z M433.9,31.6c-1.2,1.2-1.8,3-2.1,5.4h12.9
		c-0.3-4.8-2.4-7.3-6.3-7.3C436.6,29.8,435,30.4,433.9,31.6z"/>
	<g>
		<path fill="#7533FF" d="M226.6,41c0,11.7-9.4,21.1-21.1,21.1V50.7c5.3,0,9.6-4.3,9.6-9.6V41H226.6z"/>
		<path fill="#00CFFF" d="M226.6,41h-11.5c0-2.6-1.1-5-2.8-6.7l8.2-8.2C224.3,29.9,226.6,35.2,226.6,41z"/>
		<path fill="#FF0060" d="M220.4,26.1l-8.2,8.2c-1.7-1.7-4.1-2.8-6.7-2.8c-5.3,0-9.6,4.3-9.6,9.6c0,5.3,4.3,9.6,9.6,9.6v11.4
			c-11.7,0-21.1-9.4-21.1-21.1c0-11.6,9.4-21.1,21.1-21.1C211.3,19.9,216.6,22.3,220.4,26.1z"/>
	</g>
</g>
</svg>
