<?xml version="1.0" encoding="UTF-8"?>
<svg width="50px" height="50px" viewBox="0 0 50 50" version="1.1" xmlns="http://www.w3.org/2000/svg" xmlns:xlink="http://www.w3.org/1999/xlink">
    <!-- Generator: Sketch 53.2 (72643) - https://sketchapp.com -->
    <title>ic-check-01</title>
    <desc>Created with Sketch.</desc>
    <g id="UI-DESIGN" stroke="none" stroke-width="1" fill="none" fill-rule="evenodd">
        <g id="00-00-TOOLBOX-01" transform="translate(-568.000000, -5905.000000)" fill="#FF00FF">
            <g id="ICONS" transform="translate(270.000000, 5778.000000)">
                <g id="bg" transform="translate(0.000000, 117.000000)">
                    <g id="ic-check-01" transform="translate(298.000000, 10.000000)">
                        <circle id="Oval" fill-opacity="0.15" cx="25" cy="25" r="25"></circle>
                        <path fill="#003189" d="M14.4145988,25.8339063 C14.2479217,25.6672292 14.1666667,25.4140884 14.1666667,25.2474113 C14.1666667,25.0807342 14.2479217,24.8328021 14.4145988,24.666125 L15.5823801,23.4983436 C15.916776,23.1639477 16.4168073,23.1639477 16.7501615,23.4983436 L16.8324583,23.5837657 L21.4181616,28.4986562 C21.5848386,28.666375 21.8327708,28.666375 22.0004896,28.4986562 L33.1657708,16.9135571 L33.2511928,16.9135571 C33.5855887,16.5843699 34.0856199,16.5843699 34.4189741,16.9135571 L35.5836302,18.0813384 C35.9169844,18.4157343 35.9169844,18.9157656 35.5836302,19.2491197 L22.2525887,33.0854012 C22.0859116,33.2520783 21.9181928,33.3333333 21.6660937,33.3333333 C21.4181616,33.3333333 21.2514845,33.2520783 21.0848074,33.0854012 L14.5812759,26.0818384 L14.4145988,25.8339063 Z" id="Fill-1"></path>
                    </g>
                </g>
            </g>
        </g>
    </g>
</svg>