<?xml version="1.0" encoding="utf-8"?>
<!-- Generator: Adobe Illustrator 18.0.0, SVG Export Plug-In . SVG Version: 6.00 Build 0)  -->
<!DOCTYPE svg PUBLIC "-//W3C//DTD SVG 1.1//EN" "http://www.w3.org/Graphics/SVG/1.1/DTD/svg11.dtd">
<svg version="1.1" id="Calque_1" xmlns="http://www.w3.org/2000/svg" xmlns:xlink="http://www.w3.org/1999/xlink" x="0px" y="0px"
	 viewBox="0 0 10 16.5" enable-background="new 0 0 10 16.5" xml:space="preserve">
<g>
	<g>
		<g>
			<path fill="#FFF" d="M0.5,9.5L0.5,9.5c0.7,0.7,1.8,0.7,2.5,0L9.5,3c0.7-0.7,0.7-1.8,0-2.5l0,0C8.8-0.2,7.7-0.2,7,0.5L0.5,7
				C-0.2,7.7-0.2,8.8,0.5,9.5z"/>
		</g>
		<g>
			<path fill="#FFF" d="M0.5,7.1L0.5,7.1c-0.7,0.7-0.7,1.8,0,2.5L7,16c0.7,0.7,1.8,0.7,2.5,0l0,0c0.7-0.7,0.7-1.8,0-2.5L3,7.1
				C2.3,6.4,1.2,6.4,0.5,7.1z"/>
		</g>
	</g>
</g>
</svg>
