<?xml version="1.0" encoding="utf-8"?>
<!-- Generator: Adobe Illustrator 18.0.0, SVG Export Plug-In . SVG Version: 6.00 Build 0)  -->
<!DOCTYPE svg PUBLIC "-//W3C//DTD SVG 1.1//EN" "http://www.w3.org/Graphics/SVG/1.1/DTD/svg11.dtd">
<svg version="1.1" id="Calque_1" xmlns="http://www.w3.org/2000/svg" xmlns:xlink="http://www.w3.org/1999/xlink" x="0px" y="0px"
	 viewBox="0 0 10 16.5" enable-background="new 0 0 10 16.5" xml:space="preserve">
<g>
	<g>
		<g>
			<path fill="#00CFFF" d="M9.5,7.1L9.5,7.1C8.8,6.4,7.7,6.4,7,7.1l-6.5,6.5c-0.7,0.7-0.7,1.8,0,2.5l0,0c0.7,0.7,1.8,0.7,2.5,0
				l6.5-6.5C10.2,8.8,10.2,7.7,9.5,7.1z"/>
		</g>
		<g>
			<path fill="#00CFFF" d="M9.5,9.5L9.5,9.5c0.7-0.7,0.7-1.8,0-2.5L3,0.5c-0.7-0.7-1.8-0.7-2.5,0l0,0c-0.7,0.7-0.7,1.8,0,2.5L7,9.5
				C7.7,10.2,8.8,10.2,9.5,9.5z"/>
		</g>
	</g>
</g>
</svg>
